<?xml version="1.0" encoding="iso-8859-1"?>
<!-- Generator: Adobe Illustrator 19.0.0, SVG Export Plug-In . SVG Version: 6.00 Build 0)  -->
<svg version="1.1" id="Capa_1" xmlns="http://www.w3.org/2000/svg" xmlns:xlink="http://www.w3.org/1999/xlink" x="0px" y="0px"
	 viewBox="0 0 367.6 367.6" style="enable-background:new 0 0 367.6 367.6;" xml:space="preserve">
<g>
	<g>
		<path d="M229.72,85.6l-27.64-27.28c-2.62-2.529-6.783-2.494-9.36,0.08c-2.604,2.608-2.604,6.832,0,9.44l27.64,27.28
			c2.726,2.486,6.951,2.292,9.437-0.433C232.153,92.104,232.119,88.142,229.72,85.6z"/>
	</g>
</g>
<g>
	<g>
		<path d="M258.12,40.4c0.022-3.689-2.951-6.698-6.64-6.72c-0.027,0-0.053,0-0.08,0c-3.689,0.022-6.662,3.031-6.64,6.72c0,0,0,0,0,0
			L245,79.24c-0.005,3.689,2.981,6.684,6.67,6.69c3.689,0.005,6.684-2.981,6.69-6.67c0-0.007,0-0.013,0-0.02L258.12,40.4z"/>
	</g>
</g>
<g>
	<g>
		<path d="M362.84,120.76c-3.019-3.059-7.142-4.774-11.44-4.76h-82.48c-3.643-0.001-6.615,2.918-6.68,6.56
			c-0.37,5.798-5.37,10.199-11.168,9.829c-5.115-0.326-9.251-4.292-9.792-9.389v-0.32c0-3.711-3.009-6.72-6.72-6.72h-125.6
			C48.783,115.96,0,164.743,0,224.92s48.783,108.96,108.96,108.96v0.04c48.405-0.052,90.991-31.987,104.6-78.44h22.16
			c7.081-0.062,13.846-2.941,18.8-8c5.069-4.964,7.949-11.745,8-18.84v-39.28h88.88c8.938-0.022,16.178-7.262,16.2-16.2V132.2
			C367.614,127.902,365.899,123.779,362.84,120.76z M293.72,175.8h-38c-3.711,0-6.72,3.009-6.72,6.72v46.24
			c-0.033,3.528-1.473,6.898-4,9.36c-2.462,2.527-5.832,3.967-9.36,4h-27.2c-3.167,0.006-5.9,2.222-6.56,5.32
			c-12.43,51.292-64.086,82.796-115.378,70.366C35.21,305.377,3.707,253.72,16.136,202.428c4.13-17.043,12.87-32.621,25.264-45.028
			c17.899-17.948,42.212-28.025,67.56-28h120c4.172,12.581,17.754,19.398,30.335,15.225c7.195-2.386,12.839-8.031,15.225-15.225
			h19.2V175.8z M320.16,175.8h-13.04v-46.4h13.04V175.8z M353.96,173.16c-0.022,1.537-1.263,2.779-2.8,2.8h-17.64l0.04-46.56h17.64
			c0.732,0.004,1.434,0.291,1.96,0.8c0.509,0.526,0.796,1.228,0.8,1.96V173.16z"/>
	</g>
</g>
<g>
	<g>
		<path d="M310.673,57.637c-2.532-2.683-6.76-2.805-9.443-0.273c-0.121,0.114-0.238,0.233-0.35,0.356L273.6,85.36
			c-2.486,2.726-2.292,6.951,0.433,9.437c2.582,2.356,6.544,2.322,9.087-0.077l27.28-27.64
			C313.083,64.548,313.206,60.32,310.673,57.637z"/>
	</g>
</g>
<g>
	<g>
		<path d="M108.965,166.36c-32.43-0.001-58.721,26.287-58.723,58.717c-0.001,15.574,6.185,30.51,17.197,41.523
			c10.999,11.031,25.942,17.221,41.52,17.2c32.43,0.001,58.721-26.287,58.723-58.717
			C167.684,192.653,141.395,166.362,108.965,166.36z M141.04,257.145c-17.702,17.695-46.397,17.69-64.092-0.012
			c-8.508-8.511-13.282-20.058-13.268-32.092c-0.046-12.044,4.72-23.607,13.24-32.12l0.04,0.12
			c17.702-17.695,46.397-17.69,64.092,0.012S158.742,239.449,141.04,257.145z"/>
	</g>
</g>
<g>
</g>
<g>
</g>
<g>
</g>
<g>
</g>
<g>
</g>
<g>
</g>
<g>
</g>
<g>
</g>
<g>
</g>
<g>
</g>
<g>
</g>
<g>
</g>
<g>
</g>
<g>
</g>
<g>
</g>
</svg>
