<?xml version="1.0" encoding="iso-8859-1"?>
<!-- Generator: Adobe Illustrator 19.0.0, SVG Export Plug-In . SVG Version: 6.00 Build 0)  -->
<svg version="1.1" id="Capa_1" xmlns="http://www.w3.org/2000/svg" xmlns:xlink="http://www.w3.org/1999/xlink" x="0px" y="0px"
	 viewBox="0 0 367.422 367.422" style="enable-background:new 0 0 367.422 367.422;" xml:space="preserve">
<g>
	<g>
		<path d="M365.697,288.217l-44.28-49.12h22.52c3.689-0.005,6.676-3,6.671-6.689c-0.002-1.473-0.491-2.904-1.391-4.071l-43.8-56.64
			h13.48c3.689,0.015,6.692-2.964,6.706-6.653c0.005-1.189-0.308-2.359-0.906-3.387l-37-64.64l-37.2-64.4
			c-1.849-3.192-5.937-4.281-9.129-2.431c-1.009,0.584-1.847,1.423-2.431,2.431l-24.84,42.68l7.72,13.36l22.72-39.32l31.4,54.36
			l31.4,54.4h-15.64c-3.711,0.027-6.698,3.057-6.671,6.768c0.012,1.636,0.62,3.212,1.711,4.432l2.12,2.72l41.36,53.64h-24
			c-3.711,0.013-6.709,3.032-6.696,6.743c0.006,1.778,0.717,3.481,1.977,4.737l44,48.8h-42.64l2,2.24l-44.24-49.08h22.52
			c3.689-0.005,6.676-3,6.671-6.689c-0.002-1.473-0.491-2.904-1.391-4.071l-43.8-56.64h13.48c3.689-0.029,6.656-3.043,6.628-6.732
			c-0.01-1.242-0.366-2.457-1.028-3.508l-37.2-64.44l-37.2-64.4c-1.849-3.192-5.937-4.281-9.129-2.431
			c-1.009,0.584-1.847,1.423-2.431,2.431l-24.566,42.492l-24.514-42.492c-1.849-3.192-5.937-4.281-9.129-2.431
			c-1.009,0.584-1.847,1.423-2.431,2.431l-37,64l-0.2,0.36l-36.96,64c-2.21,2.981-1.585,7.19,1.396,9.4
			c1.202,0.891,2.667,1.356,4.164,1.32h13.48l-43.48,56c-2.474,2.766-2.238,7.014,0.528,9.489c1.22,1.091,2.795,1.699,4.432,1.711
			h22.52l-44,48.8c-2.629,2.62-2.636,6.875-0.017,9.503c1.255,1.26,2.958,1.97,4.737,1.977l0,0.2h96.52v29.92
			c0.001,2.343,0.937,4.589,2.6,6.24c1.641,1.653,3.871,2.588,6.2,2.6h21.68c1.992,0.002,3.925-0.676,5.48-1.92l0.76-0.64
			c1.663-1.651,2.599-3.897,2.6-6.24v-29.96h21.52v29.92c0.001,2.343,0.937,4.589,2.6,6.24c1.641,1.653,3.871,2.588,6.2,2.6h21.64
			c1.992,0.002,3.925-0.676,5.48-1.92l0.76-0.64c1.663-1.651,2.599-3.897,2.6-6.24v-29.96h21.56v29.92
			c0.001,2.343,0.937,4.589,2.6,6.24c1.641,1.653,3.871,2.588,6.2,2.6h21.64c1.992,0.002,3.925-0.676,5.48-1.92l0.76-0.64
			c1.663-1.651,2.599-3.897,2.6-6.24v-29.96h96.56c3.689,0.003,6.682-2.986,6.685-6.675
			C367.423,291.045,366.808,289.446,365.697,288.217z M21.737,285.937l44.28-49.08c2.474-2.737,2.262-6.961-0.475-9.435
			c-1.229-1.111-2.828-1.726-4.485-1.725h-24l41.4-53.68l2.4-3.12c2.254-2.921,1.714-7.115-1.207-9.37
			c-1.134-0.875-2.52-1.363-3.953-1.39h-15.6l31.36-54.44l0.2-0.36l31.2-54.04l22.593,39.168l-4.713,8.151l-0.2,0.36l-36.84,64.08
			c-2.166,3.014-1.478,7.213,1.536,9.379c1.182,0.85,2.609,1.292,4.064,1.261h13.48l-43.44,56c-2.474,2.766-2.238,7.014,0.528,9.489
			c1.22,1.091,2.795,1.699,4.432,1.711h22.52l-42.28,47.04H21.737z M129.137,324.697h-12.48v-25.32h12.48V324.697z M177.457,324.697
			v-25.32h12.48l0.04,25.32H177.457z M238.297,324.697v-25.32h12.48l0.04,25.32H238.297z M82.577,285.937l44.24-49.24
			c2.474-2.737,2.262-6.961-0.475-9.435c-1.229-1.111-2.828-1.726-4.485-1.725h-24l41.44-53.52l2.4-3.12
			c2.253-2.921,1.712-7.116-1.209-9.369c-1.166-0.9-2.598-1.389-4.071-1.391h-15.52l31.4-54.44l0.2-0.36l31.2-54.04l31.4,54.4
			l31.4,54.4h-15.52c-3.711,0.027-6.698,3.057-6.671,6.768c0.012,1.636,0.62,3.212,1.711,4.432l2.12,2.72l41.36,53.64h-24
			c-3.711,0.013-6.709,3.032-6.696,6.743c0.006,1.778,0.717,3.481,1.977,4.737l44,48.8H82.577z"/>
	</g>
</g>
<g>
</g>
<g>
</g>
<g>
</g>
<g>
</g>
<g>
</g>
<g>
</g>
<g>
</g>
<g>
</g>
<g>
</g>
<g>
</g>
<g>
</g>
<g>
</g>
<g>
</g>
<g>
</g>
<g>
</g>
</svg>
