<?xml version="1.0" encoding="iso-8859-1"?>
<!-- Generator: Adobe Illustrator 19.0.0, SVG Export Plug-In . SVG Version: 6.00 Build 0)  -->
<svg version="1.1" id="Capa_1" xmlns="http://www.w3.org/2000/svg" xmlns:xlink="http://www.w3.org/1999/xlink" x="0px" y="0px"
	 viewBox="0 0 367.375 367.375" style="enable-background:new 0 0 367.375 367.375;" xml:space="preserve">
<g>
	<g>
		<path d="M359.588,146.556c-3.353-12.085-9.758-23.105-18.6-32h0c-17.92-17.44-46.16-25.08-84.28-12.2
			c-7.115-18.038-15.76-35.435-25.84-52c-11.681-18.305-26.071-34.732-42.68-48.72c-2.512-2.182-6.248-2.182-8.76,0
			c-16.632,14.022-31.036,30.49-42.72,48.84c-10.081,16.564-18.726,33.961-25.84,52c-38.12-12.88-66.36-5.24-84.28,12.2
			c-8.914,8.872-15.39,19.894-18.8,32c-3.549,12.365-4.489,25.333-2.76,38.08c4.24,32.24,24.8,63.44,62.16,73.8
			c19.16,5.32,25.88-2.04,29-13.24c0.906-3.6,1.535-7.264,1.88-10.96v-0.6c1.106-8.238,7.328-14.861,15.48-16.48
			c3.32-1,6.831-1.192,10.24-0.56c1.76,0.44,3,1.04,3.24,1.68c0.24,0.64-0.48,2.64-2.96,5.48c-1.214,1.254-1.889,2.934-1.88,4.68
			v2.08l-0.28,21.48c-11-2.76-26.96-0.8-24.8,34.88c2.32,38.56,39,46.88,52.48,48.64c7.24,20.76,31.24,31.12,31.32,31.16
			c1.731,0.772,3.709,0.772,5.44,0c0,0,24-10.44,31.32-31.16c13.48-1.76,50.2-10.08,52.48-48.64c2.12-35.56-13.64-37.64-24.68-34.92
			v-23.52c0.007-2.325-1.188-4.488-3.16-5.72c-1.8-2.2-2.36-3.64-2.08-4.44c0.24-0.64,1.48-1.2,3.24-1.68
			c3.425-0.742,6.98-0.646,10.36,0.28c8.153,1.619,14.374,8.242,15.48,16.48v0.6c0.342,3.749,0.97,7.467,1.88,11.12
			c3.12,11.2,9.8,18.56,29,13.24c37.32-10.36,57.92-41.56,62.16-73.8C364.077,171.889,363.137,158.921,359.588,146.556z
			 M242.628,267.676c2.12-1.16,16-7.64,14.36,18.72c-2.12,35.08-44.52,36.52-44.64,36.52c-3.079,0.124-5.674,2.339-6.28,5.36
			c-2.68,13.36-16.32,22-22.24,25.16c-5.92-3.16-19.56-11.76-22.24-25.16c-0.638-3.189-3.468-5.463-6.72-5.4
			c-4.52-0.28-42.24-3.52-44.2-36.52c-1.76-28.64,14.52-18.68,14.56-18.68c1.031,0.605,2.205,0.923,3.4,0.92h110.32
			C240.237,268.652,241.516,268.332,242.628,267.676z M135.788,255.196v-20h96l0.24,20H135.788z M349.348,182.916
			c-3.6,27.4-20.96,53.92-52.44,62.64c-8.68,2.4-11.44,0-12.52-4c-0.707-3.001-1.202-6.049-1.48-9.12v-0.6
			c-1.612-13.859-11.905-25.134-25.56-28c-5.582-1.443-11.432-1.498-17.04-0.16c-5.683,1.086-10.41,5.013-12.52,10.4
			c-0.848,2.5-0.987,5.186-0.4,7.76h-87.12c0.563-2.581,0.397-5.268-0.48-7.76c-2.116-5.383-6.841-9.307-12.52-10.4
			c-5.579-1.279-11.386-1.183-16.92,0.28c-13.655,2.866-23.948,14.141-25.56,28v0.6c-0.271,3.003-0.752,5.984-1.44,8.92
			c-1.08,4-4,6.32-12.52,4c-31.48-8.76-48.84-35.24-52.44-62.64c-1.477-10.9-0.673-21.987,2.36-32.56
			c2.709-9.845,7.886-18.835,15.04-26.12c15.4-14.96,40.84-20.76,76.32-7.12c3.39,1.29,7.19-0.362,8.56-3.72
			c7.416-19.341,16.532-37.988,27.24-55.72c9.948-15.577,22.025-29.687,35.88-41.92c13.821,12.278,25.858,26.428,35.76,42.04
			c10.708,17.732,19.824,36.378,27.24,55.72c1.37,3.358,5.17,5.01,8.56,3.72c35.52-13.64,60.96-8,76.32,7.12
			c7.268,7.276,12.543,16.298,15.32,26.2c3.003,10.537,3.793,21.582,2.32,32.44L349.348,182.916z"/>
	</g>
</g>
<g>
</g>
<g>
</g>
<g>
</g>
<g>
</g>
<g>
</g>
<g>
</g>
<g>
</g>
<g>
</g>
<g>
</g>
<g>
</g>
<g>
</g>
<g>
</g>
<g>
</g>
<g>
</g>
<g>
</g>
</svg>
