<?xml version="1.0" encoding="iso-8859-1"?>
<!-- Generator: Adobe Illustrator 19.0.0, SVG Export Plug-In . SVG Version: 6.00 Build 0)  -->
<svg version="1.1" id="Capa_1" xmlns="http://www.w3.org/2000/svg" xmlns:xlink="http://www.w3.org/1999/xlink" x="0px" y="0px"
	 viewBox="0 0 367.934 367.934" style="enable-background:new 0 0 367.934 367.934;" xml:space="preserve">
<g>
	<g>
		<path d="M361.238,319.537L361.238,319.537l-154.24,0v-77.8h119.56c1.83-0.001,3.58-0.753,4.84-2.08l34.68-36.4
			c2.474-2.583,2.474-6.657,0-9.24l-34.36-36c-1.268-1.544-3.162-2.439-5.16-2.44h-119.56v-99.64
			c-0.022-11.567-9.393-20.938-20.96-20.96h-3.6c-11.567,0.022-20.938,9.393-20.96,20.96v26.8H41.918
			c-1.83,0.001-3.58,0.753-4.84,2.08l-34.68,36.4c-2.474,2.583-2.474,6.657,0,9.24l34.36,36c1.268,1.544,3.162,2.439,5.16,2.44
			h119.56v150.64H7.238c-3.7-0.286-6.932,2.482-7.218,6.182c-0.286,3.7,2.482,6.932,6.182,7.218c0.345,0.027,0.691,0.027,1.036,0
			h354c3.7-0.286,6.468-3.518,6.182-7.218C367.165,322.416,364.541,319.792,361.238,319.537z M206.998,168.937h116.72l28.32,29.68
			l-28.32,29.68h-116.72V168.937z M161.478,155.537H44.758l-28.32-29.68l28.32-29.68h116.72V155.537z M193.478,162.137v157.4h-18.6
			v-263.6c0.022-4.166,3.394-7.538,7.56-7.56h3.6c4.166,0.022,7.538,3.394,7.56,7.56L193.478,162.137z"/>
	</g>
</g>
<g>
</g>
<g>
</g>
<g>
</g>
<g>
</g>
<g>
</g>
<g>
</g>
<g>
</g>
<g>
</g>
<g>
</g>
<g>
</g>
<g>
</g>
<g>
</g>
<g>
</g>
<g>
</g>
<g>
</g>
</svg>
