<?xml version="1.0" encoding="iso-8859-1"?>
<!-- Generator: Adobe Illustrator 19.0.0, SVG Export Plug-In . SVG Version: 6.00 Build 0)  -->
<svg version="1.1" id="Capa_1" xmlns="http://www.w3.org/2000/svg" xmlns:xlink="http://www.w3.org/1999/xlink" x="0px" y="0px"
	 viewBox="0 0 367.59 367.59" style="enable-background:new 0 0 367.59 367.59;" xml:space="preserve">
<g>
	<g>
		<path d="M344.352,45.094c-0.019-0.019-0.038-0.038-0.057-0.057c-4.594-4.601-10.818-7.202-17.32-7.24
			c-1.942-4.539-4.946-8.545-8.76-11.68c-13.139-10.699-32.464-8.72-43.162,4.419c-1.795,2.205-3.275,4.648-4.398,7.261
			c-6.502,0.038-12.726,2.639-17.32,7.24c-9.654,9.622-9.68,25.249-0.057,34.903c0.019,0.019,0.038,0.038,0.057,0.057
			c4.634,4.64,10.923,7.245,17.48,7.24h56c6.557,0.005,12.846-2.6,17.48-7.24C353.948,70.374,353.974,54.748,344.352,45.094z
			 M334.895,70.796c-2.128,2.109-5.004,3.288-8,3.28h-56c-2.996,0.008-5.872-1.171-8-3.28c-4.35-4.446-4.35-11.554,0-16
			c2.128-2.109,5.004-3.288,8-3.28h1.48h0.4l0.96,0.2c3.527,0.836,7.077-1.294,8-4.8v-0.36c1.94-9.367,11.106-15.387,20.473-13.447
			c6.762,1.401,12.046,6.685,13.447,13.447c0.703,3.622,4.209,5.987,7.831,5.284c0.07-0.014,0.14-0.028,0.209-0.044h0.36l1.36-0.28
			h1.48c2.996-0.008,5.872,1.171,8,3.28C339.244,59.243,339.244,66.35,334.895,70.796z"/>
	</g>
</g>
<g>
	<g>
		<path d="M68.785,69.327c-3.126-3.206-7.308-5.171-11.771-5.531c-5.571-11.046-19.042-15.484-30.088-9.912
			c-4.28,2.159-7.754,5.633-9.912,9.912C6.823,64.661-0.739,73.624,0.126,83.815c0.37,4.361,2.272,8.449,5.369,11.541l0.12,0.16
			c3.464,3.479,8.17,5.436,13.08,5.44h36.68c4.91-0.004,9.616-1.961,13.08-5.44C75.778,88.376,75.926,76.651,68.785,69.327z
			 M58.934,86.156c-0.956,0.952-2.251,1.484-3.6,1.48h-36.64c-1.349,0.004-2.644-0.528-3.6-1.48c-1.999-1.999-1.999-5.241,0-7.24
			v-0.12c0.958-0.948,2.252-1.48,3.6-1.48h0.64h0.64c3.527,0.836,7.077-1.294,8-4.8v-0.32c1.044-4.882,5.849-7.993,10.731-6.949
			c3.483,0.745,6.204,3.466,6.949,6.949c0.729,3.617,4.252,5.957,7.869,5.228c0.044-0.009,0.088-0.018,0.131-0.028h0.52h0.48h0.64
			c2.828-0.022,5.138,2.253,5.159,5.08C60.465,83.858,59.917,85.185,58.934,86.156z"/>
	</g>
</g>
<g>
	<g>
		<path d="M367.215,339.476l-20.8-60c-0.075-0.273-0.169-0.54-0.28-0.8l-13.48-38.88l-35.28-101.24
			c-1.195-3.49-4.993-5.351-8.483-4.157c-1.954,0.669-3.488,2.203-4.157,4.157l-23.52,67.68l-1.92-5.52l-48.28-138.76
			c-1.195-3.49-4.993-5.352-8.483-4.157c-1.953,0.669-3.488,2.203-4.157,4.157l-48.24,138.76l-6.72,19.36v0.44l-6,17.28l-4-12
			l-40-115.56c-1.195-3.49-4.993-5.351-8.483-4.157c-1.953,0.669-3.488,2.203-4.157,4.157l-40.88,115.64l-39.52,113.6
			c-1.215,3.483,0.624,7.292,4.107,8.507c0.711,0.248,1.459,0.374,2.213,0.373h0.2h294.64h59.08
			c3.686,0.163,6.806-2.693,6.968-6.379C367.621,341.128,367.496,340.279,367.215,339.476z M291.055,161.116l28.84,83.28l2.76,7.4
			l-19.72-22.12c-2.457-2.752-6.68-2.991-9.432-0.534c-0.702,0.627-1.264,1.395-1.648,2.254l-12.24,27.48l-6.36-18.32l-0.24-0.64
			l-4.72-13.36L291.055,161.116z M204.735,84.516l41.92,120.6l0.84,2.36l-23.6-30c-2.306-2.88-6.51-3.346-9.39-1.04
			c-1.22,0.976-2.058,2.349-2.37,3.88l-7.76,37.08l-9.92-43.68c-0.72-3.618-4.236-5.968-7.855-5.249
			c-1.54,0.306-2.922,1.145-3.905,2.369l-14.12,17.48L204.735,84.516z M86.574,132.836l33.88,97.4l1.56,4.44l-13.8-14.52
			c-2.537-2.679-6.765-2.794-9.443-0.257c-1.002,0.949-1.685,2.184-1.957,3.537l-5.84,28.68l-9.88-43.64
			c-0.72-3.618-4.236-5.968-7.855-5.249c-1.54,0.306-2.922,1.145-3.905,2.369l-14.12,17.48L86.574,132.836z M103.415,334.996h-87.12
			l25.88-74.44l28.88-35.8l13.76,60.64c0.788,3.604,4.349,5.887,7.953,5.099c2.68-0.586,4.729-2.751,5.167-5.459l9.44-46.36
			l21.64,22.76l-4.2,12l-16.64,47.92L103.415,334.996z M117.574,334.996l38-109.2l28.88-35.8l13.76,60.64
			c0.788,3.604,4.349,5.887,7.953,5.099c2.68-0.586,4.729-2.751,5.167-5.459l10.84-53.24l38.68,48.84l31.04,89.12H117.574z
			 M305.975,334.956l-20-57.56l13.92-31l34.2,38.48l17.4,50.08H305.975z"/>
	</g>
</g>
<g>
</g>
<g>
</g>
<g>
</g>
<g>
</g>
<g>
</g>
<g>
</g>
<g>
</g>
<g>
</g>
<g>
</g>
<g>
</g>
<g>
</g>
<g>
</g>
<g>
</g>
<g>
</g>
<g>
</g>
</svg>
