<?xml version="1.0" encoding="iso-8859-1"?>
<!-- Generator: Adobe Illustrator 19.0.0, SVG Export Plug-In . SVG Version: 6.00 Build 0)  -->
<svg version="1.1" id="Capa_1" xmlns="http://www.w3.org/2000/svg" xmlns:xlink="http://www.w3.org/1999/xlink" x="0px" y="0px"
	 viewBox="0 0 367.44 367.44" style="enable-background:new 0 0 367.44 367.44;" xml:space="preserve">
<g>
	<g>
		<path d="M250.12,171.14c-2.408-2.511-5.722-3.951-9.2-4h-25.76v-25.76c-0.049-3.478-1.489-6.792-4-9.2
			c-2.408-2.51-5.722-3.951-9.2-4h-36.64c-3.464,0.059-6.762,1.499-9.16,4c-2.511,2.408-3.951,5.722-4,9.2v25.92h-25.8
			c-3.464,0.059-6.762,1.499-9.16,4c-2.511,2.408-3.951,5.722-4,9.2v36.76c0.01,3.209,1.207,6.3,3.36,8.68l0.6,0.4
			c2.408,2.51,5.722,3.951,9.2,4h25.92v25.76c0.032,3.219,1.258,6.312,3.44,8.68l0.48,0.52c2.408,2.511,5.722,3.951,9.2,4h36.72
			c7.193-0.022,13.018-5.847,13.04-13.04v-26.08h25.92c7.193-0.022,13.018-5.847,13.04-13.04v-36.8
			C254.071,176.862,252.631,173.548,250.12,171.14z M240.76,216.74h-32.32c-3.711,0-6.72,3.009-6.72,6.72v32.24h-36v-32.24
			c0-3.711-3.009-6.72-6.72-6.72h-32.28l0.04-36.04h32.28c3.711,0,6.72-3.009,6.72-6.72v-32.24h36v32.28
			c0,3.711,3.009,6.72,6.72,6.72h32.28V216.74z"/>
	</g>
</g>
<g>
	<g>
		<path d="M361.36,84.58l-0.4-0.44c-4.121-4.14-9.719-6.471-15.56-6.48H231.48V67.7c-0.022-11.169-9.071-20.218-20.24-20.24H156.2
			c-11.169,0.022-20.218,9.071-20.24,20.24v9.84H22.04c-5.841,0.009-11.439,2.34-15.56,6.48C2.311,88.17-0.023,93.817,0,99.7v198.24
			c0.012,5.633,2.189,11.046,6.08,15.12l0.4,0.44c4.121,4.14,9.719,6.471,15.56,6.48H345.4c5.841-0.009,11.439-2.34,15.56-6.48
			c4.14-4.121,6.471-9.719,6.48-15.56V99.7C367.428,94.067,365.251,88.654,361.36,84.58z M311.72,90.94v19.6
			c0.007,1.573-0.612,3.084-1.72,4.2c-1.116,1.109-2.627,1.727-4.2,1.72h-1.48c-3.283-0.022-5.938-2.677-5.96-5.96l-0.24-19.56
			H311.72z M149.36,67.7c0.022-3.769,3.071-6.818,6.84-6.84h55.04c3.769,0.022,6.818,3.071,6.84,6.84v9.84h-68.72V67.7z
			 M55.72,90.94h13.6v19.6c0.039,1.556-0.535,3.065-1.6,4.2c-1.116,1.109-2.627,1.727-4.2,1.72h-1.48
			c-3.309,0.177-6.135-2.362-6.312-5.671c-0.004-0.083-0.007-0.166-0.008-0.249V90.94z M353.84,297.94
			c-0.001,2.281-0.907,4.468-2.52,6.08c-1.606,1.628-3.794,2.549-6.08,2.56H22.04c-2.286-0.011-4.474-0.932-6.08-2.56l-0.24-0.32
			c-1.468-1.59-2.282-3.676-2.28-5.84L13.4,99.7c0.001-2.281,0.907-4.468,2.52-6.08c1.606-1.628,3.794-2.549,6.08-2.56h20.44v19.6
			c0.022,10.683,8.677,19.338,19.36,19.36h1.48c5.12-0.011,10.025-2.054,13.64-5.68c3.636-3.624,5.679-8.547,5.68-13.68v-19.6h202
			v19.6c0.022,10.683,8.677,19.338,19.36,19.36h1.48c5.12-0.011,10.026-2.054,13.64-5.68c3.636-3.624,5.679-8.547,5.68-13.68v-19.6
			h20.44c2.286,0.011,4.474,0.932,6.08,2.56l0.28,0.24c1.468,1.59,2.282,3.676,2.28,5.84V297.94z"/>
	</g>
</g>
<g>
</g>
<g>
</g>
<g>
</g>
<g>
</g>
<g>
</g>
<g>
</g>
<g>
</g>
<g>
</g>
<g>
</g>
<g>
</g>
<g>
</g>
<g>
</g>
<g>
</g>
<g>
</g>
<g>
</g>
</svg>
