<?xml version="1.0" encoding="iso-8859-1"?>
<!-- Generator: Adobe Illustrator 19.0.0, SVG Export Plug-In . SVG Version: 6.00 Build 0)  -->
<svg version="1.1" id="Capa_1" xmlns="http://www.w3.org/2000/svg" xmlns:xlink="http://www.w3.org/1999/xlink" x="0px" y="0px"
	 viewBox="0 0 367.522 367.522" style="enable-background:new 0 0 367.522 367.522;" xml:space="preserve">
<g>
	<g>
		<path d="M242.723,53.959c-19.043-0.001-34.481,15.435-34.482,34.478c-0.001,19.043,15.435,34.481,34.478,34.482
			c9.155,0.001,17.934-3.64,24.402-10.118c6.465-6.457,10.093-15.223,10.08-24.36C277.202,69.398,261.766,53.96,242.723,53.959z
			 M257.618,103.342c-8.182,8.262-21.512,8.341-29.788,0.168c-8.284-8.18-8.369-21.527-0.189-29.811
			c8.18-8.284,21.527-8.369,29.811-0.189c3.994,3.944,6.25,9.318,6.269,14.931C263.748,94.022,261.551,99.383,257.618,103.342z"/>
	</g>
</g>
<g>
	<g>
		<path d="M362.121,49.841c-2.432-2.431-5.721-3.81-9.16-3.84l0,0c-1.221,0.002-2.435,0.191-3.6,0.56l-41.64,13.04
			c-3.754-11.202-11.002-20.904-20.68-27.68c-10.96-7.64-25.6-12-44.4-12s-33.44,4.44-44.4,12
			c-9.633,6.795-16.838,16.495-20.56,27.68l-41.56-13.04c-1.177-0.373-2.405-0.562-3.64-0.56c-2.83,0.017-5.573,0.974-7.8,2.72
			c-2.226-1.746-4.97-2.703-7.8-2.72c-1.221,0.002-2.435,0.191-3.6,0.56l-99.12,30.8c-3.293,0.936-6.357,2.543-9,4.72
			c-3.314,2.735-5.211,6.824-5.16,11.12v237.88c0.08,4.722,2.021,9.221,5.4,12.52c2.396,2.48,5.672,3.917,9.12,4
			c1.235,0.002,2.463-0.187,3.64-0.56l99.12-30.8c2.659-0.782,5.182-1.969,7.48-3.52c2.298,1.551,4.821,2.738,7.48,3.52l99.12,30.8
			c1.178,0.37,2.405,0.559,3.64,0.56c2.83-0.017,5.574-0.974,7.8-2.72c2.227,1.746,4.97,2.703,7.8,2.72
			c1.235,0.002,2.463-0.187,3.64-0.56l99.12-30.8c3.294-0.935,6.358-2.542,9-4.72c3.314-2.735,5.211-6.824,5.16-11.12v-238
			C367.447,57.666,365.506,53.152,362.121,49.841z M118.041,64.081l-0.04,236.2c-0.024,0.412-0.229,0.793-0.56,1.04
			c-1.196,0.911-2.553,1.59-4,2l-98.84,30.68c-0.739-0.765-1.167-1.777-1.2-2.84V93.201c0.024-0.412,0.229-0.793,0.56-1.04
			c1.196-0.911,2.553-1.59,4-2l98.88-30.56C117.895,60.838,118.335,62.483,118.041,64.081z M236.001,331.961
			c-0.193,0.676-0.551,1.295-1.04,1.8l-98.84-30.44c-1.447-0.41-2.804-1.089-4-2c-0.331-0.247-0.536-0.628-0.56-1.04V63.601
			c-0.214-1.445,0.226-2.911,1.2-4l41.88,13c-3.32,22.28,2.72,46.72,12,67.48c11.317,25.062,28.085,47.282,49.08,65.04l0.28,98.2
			V331.961z M242.641,193.401c-18.699-16.251-33.667-36.349-43.88-58.92h0c-12-26.4-21.84-71.44,7.2-91.72
			c8.72-6.08,20.8-9.64,36.72-9.64c15.92,0,28,3.52,36.76,9.64c29.04,20.28,19.12,65.32,7.2,91.72
			C276.4,157.067,261.389,177.168,242.641,193.401z M354.001,300.281c-0.024,0.412-0.229,0.793-0.56,1.04
			c-1.196,0.911-2.553,1.59-4,2l-98.84,30.68c-0.489-0.505-0.847-1.124-1.04-1.8v-28v-99c21.128-17.772,38.008-40.051,49.4-65.2
			c9.36-20.76,15.36-45.24,12-67.48l41.88-12.92c0.742,0.763,1.171,1.776,1.2,2.84L354.001,300.281z"/>
	</g>
</g>
<g>
</g>
<g>
</g>
<g>
</g>
<g>
</g>
<g>
</g>
<g>
</g>
<g>
</g>
<g>
</g>
<g>
</g>
<g>
</g>
<g>
</g>
<g>
</g>
<g>
</g>
<g>
</g>
<g>
</g>
</svg>
