<?xml version="1.0" encoding="iso-8859-1"?>
<!-- Generator: Adobe Illustrator 19.0.0, SVG Export Plug-In . SVG Version: 6.00 Build 0)  -->
<svg version="1.1" id="Capa_1" xmlns="http://www.w3.org/2000/svg" xmlns:xlink="http://www.w3.org/1999/xlink" x="0px" y="0px"
	 viewBox="0 0 367.4 367.4" style="enable-background:new 0 0 367.4 367.4;" xml:space="preserve">
<g>
	<g>
		<path d="M288.614,120.76V6.72c0-3.711-3.009-6.72-6.72-6.72h-32c-28.429-0.022-51.512,22.971-51.6,51.4v69.08H85.254
			c-24.94,0.201-44.996,20.582-44.794,45.523c0.156,19.302,12.562,36.372,30.875,42.477v0.08V318.6
			c1.241,11.767,5.154,23.095,11.44,33.12c5.56,8.88,13,15.68,21.72,15.68c8.72,0,16-6.6,21.44-15.32l0.24-0.36
			c6.278-10.04,10.177-21.382,11.4-33.16v-108h144.32c24.941-0.062,45.109-20.331,45.047-45.272
			C326.886,143.028,310.618,124.128,288.614,120.76z M249.694,13.44h25.48v107.04h-36.8l0-105.32
			C242.038,14.013,245.855,13.433,249.694,13.44z M211.574,51.4c0.003-10.075,4.019-19.733,11.16-26.84
			c0.667-0.667,1.36-1.32,2.08-1.96v97.88h-13.24V51.4z M97.774,349.72c-1.352-1.599-2.582-3.297-3.68-5.08
			c-5.025-7.869-8.211-16.77-9.32-26.04v-108h13V349.72z M124.214,318.6c-1.11,9.27-4.296,18.171-9.32,26.04l-0.2,0.36
			c-1.043,1.669-2.206,3.26-3.48,4.76V210.8h13V318.6z M281.894,197.56H85.254c-17.518-0.01-31.712-14.22-31.701-31.739
			c0.005-8.411,3.351-16.476,9.301-22.421h-0.16c5.932-5.96,13.992-9.313,22.4-9.32h196.8c17.53,0,31.74,14.211,31.74,31.74
			C313.634,183.35,299.424,197.56,281.894,197.56z"/>
	</g>
</g>
<g>
	<g>
		<path d="M274.214,153.4l-0.4-0.44c-6.893-7.135-18.264-7.333-25.4-0.44c-7.136,6.893-7.333,18.264-0.44,25.4l0.4,0.44
			c6.844,6.859,17.9,7.037,24.96,0.4l0.48-0.4C280.653,171.508,280.83,160.468,274.214,153.4z M264.334,168.8l-0.2,0.24
			c-1.824,1.56-4.541,1.456-6.24-0.24l-0.24-0.24c-1.554-1.817-1.454-4.518,0.222-6.218c1.774-1.769,4.644-1.779,6.427-0.013
			c0.01,0.01,0.021,0.021,0.031,0.031l0.2,0.2C266.105,164.374,266.018,167.091,264.334,168.8z"/>
	</g>
</g>
<g>
	<g>
		<g>
			<polygon points="106.054,183.72 106.054,183.72 106.054,183.72 			"/>
			<path d="M118.774,153.04c-7.014-7.014-18.386-7.014-25.4,0c-7.025,7.003-7.043,18.374-0.041,25.399
				c3.37,3.381,7.947,5.281,12.721,5.281c4.774,0.005,9.353-1.896,12.72-5.28C125.788,171.426,125.788,160.054,118.774,153.04z
				 M109.294,168.96c-1.789,1.789-4.691,1.789-6.48,0c-1.789-1.789-1.789-4.691,0-6.48c1.789-1.789,4.691-1.789,6.48,0
				C111.084,164.269,111.084,167.171,109.294,168.96z"/>
		</g>
	</g>
</g>
<g>
</g>
<g>
</g>
<g>
</g>
<g>
</g>
<g>
</g>
<g>
</g>
<g>
</g>
<g>
</g>
<g>
</g>
<g>
</g>
<g>
</g>
<g>
</g>
<g>
</g>
<g>
</g>
<g>
</g>
</svg>
