<?xml version="1.0" encoding="iso-8859-1"?>
<!-- Generator: Adobe Illustrator 19.0.0, SVG Export Plug-In . SVG Version: 6.00 Build 0)  -->
<svg version="1.1" id="Capa_1" xmlns="http://www.w3.org/2000/svg" xmlns:xlink="http://www.w3.org/1999/xlink" x="0px" y="0px"
	 viewBox="0 0 356.09 356.09" style="enable-background:new 0 0 356.09 356.09;" xml:space="preserve">
<g>
	<g>
		<path d="M344.828,147.656c-0.275-1.232-0.89-2.361-1.777-3.259l-65.92-65.96l-65.96-65.92c-2.607-2.611-6.836-2.614-9.447-0.007
			c-0.813,0.812-1.403,1.82-1.713,2.927l-28.6,101.84l-158.68,158.64c-4.037,4.043-6.297,9.527-6.28,15.24
			c-0.004,2.31,0.361,4.605,1.08,6.8c-10.943,14.039-9.851,34,2.56,46.76l0.36,0.4c12.744,12.74,32.982,13.992,47.2,2.92
			c7.735,2.529,16.235,0.505,22-5.24l158.64-158.64l101.44-28.48C343.354,154.87,345.636,151.278,344.828,147.656z M35.691,342.197
			c-5.911,0.007-11.582-2.339-15.76-6.52l-0.32-0.28c-6.631-6.919-8.127-17.29-3.72-25.8l30.08,30.08
			C42.796,341.329,39.27,342.194,35.691,342.197z M70.171,333.357c-3.241,3.226-8.484,3.214-11.71-0.027
			c-0.278-0.279-0.535-0.577-0.77-0.893l-34.2-34.2c-3.72-3.72-5.48-8.64-1.28-12.84l150.88-150.84l48,48L70.171,333.357z
			 M230.105,172.531l-47.094-47.014c1.087-2.742,3.817-4.47,6.76-4.28c2.174-0.034,4.268,0.818,5.8,2.36l36.4,36.4l0.24,0.24
			c1.395,1.512,2.155,3.503,2.12,5.56C234.52,168.72,232.814,171.429,230.105,172.531z M247.771,167.677c0-0.64,0-1.24,0-1.88
			c-0.013-5.535-2.163-10.851-6-14.84l-0.4-0.44l-36.4-36.4c-4.033-4.027-9.501-6.286-15.2-6.28h-1.88l21.88-77.76l57.88,57.84
			l57.84,57.88L247.771,167.677z"/>
	</g>
</g>
<g>
	<g>
		<path d="M183.931,183.397l-11.72-11.72c-2.157-2.177-5.095-3.401-8.16-3.4c-3.004,0.026-5.878,1.233-8,3.36l-43.72,43.64
			c-4.464,4.493-4.464,11.747,0,16.24l11.72,11.72c4.482,4.485,11.751,4.487,16.235,0.005c0.002-0.002,0.003-0.003,0.005-0.005
			l43.64-43.6C188.396,195.144,188.396,187.89,183.931,183.397z M132.051,232.277l-8.92-8.88l40.92-40.92l9.04,9.04L132.051,232.277
			z"/>
	</g>
</g>
<g>
	<g>
		<path d="M271.873,0.535c-3.303,0.255-5.927,2.879-6.182,6.182v38.84c-0.286,3.7,2.482,6.932,6.182,7.218s6.932-2.482,7.218-6.182
			c0.027-0.345,0.027-0.691,0-1.036V6.717C278.805,3.017,275.574,0.249,271.873,0.535z"/>
	</g>
</g>
<g>
	<g>
		<path d="M349.888,76.477c-0.345-0.027-0.691-0.027-1.036,0h-38.84c-3.7-0.286-6.932,2.482-7.218,6.182s2.482,6.932,6.182,7.218
			c0.345,0.027,0.691,0.027,1.036,0h38.84c3.7,0.286,6.932-2.482,7.218-6.182C356.356,79.995,353.588,76.763,349.888,76.477z"/>
	</g>
</g>
<g>
	<g>
		<path d="M332.308,24.357c-2.304-2.91-6.53-3.401-9.44-1.097c-0.407,0.322-0.775,0.69-1.097,1.097l-27.44,27.44
			c-2.802,2.433-3.101,6.678-0.668,9.48c2.433,2.802,6.678,3.101,9.48,0.668c0.238-0.207,0.461-0.43,0.668-0.668l-0.08,0.04
			l27.48-27.52C334.121,31.493,334.612,27.267,332.308,24.357z"/>
	</g>
</g>
<g>
</g>
<g>
</g>
<g>
</g>
<g>
</g>
<g>
</g>
<g>
</g>
<g>
</g>
<g>
</g>
<g>
</g>
<g>
</g>
<g>
</g>
<g>
</g>
<g>
</g>
<g>
</g>
<g>
</g>
</svg>
