<?xml version="1.0" encoding="iso-8859-1"?>
<!-- Generator: Adobe Illustrator 19.0.0, SVG Export Plug-In . SVG Version: 6.00 Build 0)  -->
<svg version="1.1" id="Capa_1" xmlns="http://www.w3.org/2000/svg" xmlns:xlink="http://www.w3.org/1999/xlink" x="0px" y="0px"
	 viewBox="0 0 368.517 368.517" style="enable-background:new 0 0 368.517 368.517;" xml:space="preserve">
<g>
	<g>
		<path d="M362.315,328.948c-0.345-0.027-0.691-0.027-1.036,0l-0.04,0.04h-73.8c0.536-1.777,0.806-3.624,0.8-5.48v-193.72h18v48.84
			c-0.286,3.7,2.482,6.932,6.182,7.218s6.932-2.482,7.218-6.182c0.027-0.345,0.027-0.691,0-1.036v-84.56
			c0-3.711-3.009-6.72-6.72-6.72h-24.68v-5.8c-0.088-30.56-24.84-55.312-55.4-55.4h-44.32c-30.576,0.066-55.352,24.824-55.44,55.4
			v104h-22c-7.297-0.021-14.304,2.856-19.48,8c-3.669,3.698-6.22,8.357-7.36,13.44c-22.596,3.348-38.199,24.38-34.851,46.976
			c2.634,17.775,16.443,31.815,34.171,34.744c0.483,14.069,6.304,27.427,16.28,37.36c1.013,1.013,2.053,1.973,3.12,2.88H7.238
			c-3.7-0.286-6.932,2.482-7.218,6.182c-0.286,3.7,2.482,6.932,6.182,7.218c0.345,0.027,0.691,0.027,1.036,0h354.04
			c3.7,0.286,6.932-2.482,7.218-6.182S366.015,329.234,362.315,328.948z M288.238,100.788h18v15.48h-18V100.788z M83.478,275.028
			c-14.978-3.846-24.002-19.107-20.155-34.085c2.54-9.891,10.264-17.615,20.155-20.155V275.028z M157.318,329.148v-0.16h-18.32
			c-23.235-0.066-42.054-18.885-42.12-42.12v-73.6c-0.047-3.744,1.392-7.354,4-10.04c2.689-2.605,6.297-4.042,10.04-4h74.32
			c7.833,0.022,14.178,6.367,14.2,14.2v73.6C199.373,310.263,180.553,329.082,157.318,329.148z M274.838,323.508
			c-0.021,2.987-2.414,5.415-5.4,5.48h-76c1.067-0.933,2.107-1.893,3.12-2.88c10.444-10.388,16.317-24.51,16.32-39.24v-73.6
			c0.021-7.297-2.856-14.304-8-19.48c-5.176-5.144-12.183-8.021-19.48-8h-38.88v-56h128.32V323.508z M274.838,116.388h-128.32v-15.6
			h128.32V116.388z M274.838,87.388h-128.32v-5.84c0.066-23.169,18.831-41.934,42-42h44.32c23.169,0.066,41.934,18.831,42,42V87.388
			z"/>
	</g>
</g>
<g>
</g>
<g>
</g>
<g>
</g>
<g>
</g>
<g>
</g>
<g>
</g>
<g>
</g>
<g>
</g>
<g>
</g>
<g>
</g>
<g>
</g>
<g>
</g>
<g>
</g>
<g>
</g>
<g>
</g>
</svg>
