<?xml version="1.0" encoding="iso-8859-1"?>
<!-- Generator: Adobe Illustrator 19.0.0, SVG Export Plug-In . SVG Version: 6.00 Build 0)  -->
<svg version="1.1" id="Capa_1" xmlns="http://www.w3.org/2000/svg" xmlns:xlink="http://www.w3.org/1999/xlink" x="0px" y="0px"
	 viewBox="0 0 367.44 367.44" style="enable-background:new 0 0 367.44 367.44;" xml:space="preserve">
<g>
	<g>
		<path d="M313.619,53.8C279.196,19.295,232.439-0.067,183.699,0C82.234,0.012-0.011,82.275,0,183.741
			S82.275,367.452,183.741,367.44s183.711-82.275,183.699-183.741C367.435,134.976,348.075,88.25,313.619,53.8z M304.139,304.16V304
			c-66.511,66.517-174.352,66.522-240.869,0.011C-3.247,237.5-3.252,129.659,63.26,63.142S237.611-3.38,304.128,63.131
			c31.981,31.978,49.931,75.363,49.891,120.589C354.08,228.904,336.129,272.249,304.139,304.16z"/>
	</g>
</g>
<g>
	<g>
		<path d="M228.579,83.04L228.579,83.04c-2.946-2.221-7.135-1.633-9.355,1.314c-0.002,0.002-0.003,0.004-0.005,0.006l-32,42.64
			l-32,42.32c-0.794,0.921-1.319,2.041-1.52,3.24l-8.72,52.72l-8.76,52.68c-0.683,3.625,1.702,7.118,5.327,7.802
			c2.557,0.482,5.16-0.565,6.673-2.682l32-42.64l32-42.32c0.794-0.921,1.319-2.041,1.52-3.24l8.76-52.68l8.76-52.68
			C231.663,87.027,230.626,84.52,228.579,83.04z M169.579,232.4l-15.68,20.84l4.28-25.76l4-23.76
			c5.653,6.085,13.614,9.499,21.92,9.4L169.579,232.4z M198.435,190.004c-0.005,0.012-0.01,0.024-0.015,0.036v0.04
			c-3.515,8.107-12.936,11.831-21.044,8.316s-11.831-12.936-8.316-21.044c3.5-8.075,12.865-11.806,20.96-8.352
			C198.143,172.477,201.911,181.881,198.435,190.004z M209.219,140l-4,23.76c-5.653-6.085-13.614-9.499-21.92-9.4l14.48-19.24
			l15.68-20.84L209.219,140z"/>
	</g>
</g>
<g>
	<g>
		<path d="M288.979,78.44c-27.893-27.965-65.783-43.656-105.28-43.6c-82.224,0.007-148.875,66.668-148.868,148.892
			c0.007,82.224,66.668,148.875,148.892,148.868c82.224-0.007,148.875-66.668,148.868-148.892
			C332.588,144.224,316.901,106.358,288.979,78.44z M284.099,274.68l-13-12.92c-2.618-2.607-6.853-2.598-9.46,0.02
			s-2.598,6.853,0.02,9.46l13,12.88c-23.192,21.058-52.989,33.39-84.28,34.88v-18.32c0-3.689-2.991-6.68-6.68-6.68
			s-6.68,2.991-6.68,6.68V319c-31.291-1.49-61.088-13.822-84.28-34.88l12.92-13c2.607-2.618,2.598-6.853-0.02-9.46
			c-2.618-2.607-6.853-2.598-9.46,0.02l-12.88,12.96c-21.058-23.192-33.39-52.989-34.88-84.28h18.32c3.689,0,6.68-2.991,6.68-6.68
			c0-3.689-2.991-6.68-6.68-6.68h-18.32c1.499-31.277,13.83-61.058,34.88-84.24l13,12.92c2.618,2.607,6.853,2.598,9.46-0.02
			c2.607-2.618,2.598-6.853-0.02-9.46l-12.96-12.88c23.192-21.058,52.989-33.39,84.28-34.88v18.32c0,3.689,2.991,6.68,6.68,6.68
			s6.68-2.991,6.68-6.68V48.44c31.277,1.499,61.058,13.83,84.24,34.88l-12.92,13c-2.607,2.618-2.598,6.853,0.02,9.46
			c2.618,2.607,6.853,2.598,9.46-0.02l12.88-13c21.058,23.192,33.39,52.989,34.88,84.28h-18.32c-3.689-0.005-6.684,2.981-6.69,6.67
			c-0.005,3.689,2.981,6.684,6.67,6.69c0.007,0,0.013,0,0.02,0l0,0.08h18.32C317.471,221.743,305.141,251.509,284.099,274.68z"/>
	</g>
</g>
<g>
</g>
<g>
</g>
<g>
</g>
<g>
</g>
<g>
</g>
<g>
</g>
<g>
</g>
<g>
</g>
<g>
</g>
<g>
</g>
<g>
</g>
<g>
</g>
<g>
</g>
<g>
</g>
<g>
</g>
</svg>
