<?xml version="1.0" encoding="iso-8859-1"?>
<!-- Generator: Adobe Illustrator 19.0.0, SVG Export Plug-In . SVG Version: 6.00 Build 0)  -->
<svg version="1.1" id="Capa_1" xmlns="http://www.w3.org/2000/svg" xmlns:xlink="http://www.w3.org/1999/xlink" x="0px" y="0px"
	 viewBox="0 0 367.441 367.441" style="enable-background:new 0 0 367.441 367.441;" xml:space="preserve">
<g>
	<g>
		<path d="M302.249,51.401c-8.565-20.382-24.82-36.565-45.24-45.04c-10.139-4.221-21.017-6.383-32-6.36h-33.76
			c-10.142-0.058-20.192,1.914-29.56,5.8c-9.407,3.966-17.942,9.742-25.12,17c-6.469,6.546-11.953,13.997-16.28,22.12
			c-4.08,7.624-7.313,15.672-9.64,24c-2.147,0.94-4.208,2.064-6.16,3.36c-8.743,5.886-14.809,14.986-16.88,25.32v0.44l-28,140
			c-2.088,10.438,0.072,21.278,6,30.12c1.196,1.797,2.534,3.496,4,5.08l-1.24,6.16c-0.76,2.04-0.76,4.32-1.12,6.4
			c-0.213,2.267-0.32,4.373-0.32,6.32c0.017,9.041,1.924,17.979,5.6,26.24c3.858,8.606,9.283,16.419,16,23.04
			c6.225,6.172,13.328,11.388,21.08,15.48c7.781,4.14,16.121,7.131,24.76,8.88c2.667,0.533,5.467,0.947,8.4,1.24
			c2.92,0.28,5.72,0.44,8.36,0.44h74.04c10.983,0.024,21.861-2.138,32-6.36c20.42-8.585,36.622-24.888,45.08-45.36
			c4.223-10.139,6.385-21.017,6.36-32V83.401C308.632,72.418,306.47,61.541,302.249,51.401z M100.609,100.481
			c2.847-14.435,16.857-23.829,31.291-20.982c0.036,0.007,0.072,0.014,0.109,0.022c14.431,2.868,23.804,16.892,20.936,31.322
			c-0.005,0.026-0.01,0.052-0.016,0.078l-16.56,83.2l-52.4-10.4L100.609,100.481z M160.129,83.441l-0.04-0.16
			c-1.074-1.617-2.264-3.155-3.56-4.6c1.269-4.008,2.903-7.89,4.88-11.6c2.193-4.169,4.982-7.996,8.28-11.36
			c2.849-2.83,6.217-5.085,9.92-6.64c3.674-1.531,7.62-2.307,11.6-2.28h33.92c9.688,0.014,18.972,3.886,25.8,10.76
			c3.427,3.437,6.145,7.514,8,12c1.834,4.411,2.773,9.143,2.76,13.92v200.56c0.013,4.777-0.926,9.509-2.76,13.92
			c-1.856,4.485-4.574,8.562-8,12c-3.437,3.427-7.514,6.145-12,8c-4.411,1.834-9.143,2.773-13.92,2.76h-73.88
			c-1.387,0-2.653,0-3.8,0c-1.16,0-2.44-0.32-4-0.6c-4.093-0.913-8.038-2.394-11.72-4.4c-3.678-1.913-7.049-4.367-10-7.28
			c-2.394-2.309-4.37-5.016-5.84-8c-1.188-2.501-1.816-5.231-1.84-8c0-0.72,0-1.32,0-1.76s0-1.08,0.28-1.76l1.24-6.12
			c1.989-0.897,3.902-1.954,5.72-3.16c8.862-5.895,15.009-15.08,17.08-25.52l28-140v-0.48
			C168.324,103.161,166.12,92.287,160.129,83.441z M81.329,196.801l52.36,10.48l-2.6,13.08l-52.36-10.52L81.329,196.801z
			 M72.286,241.821c0.061-0.341,0.129-0.681,0.203-1.019h0.04l3.56-17.76l52.36,10.48l-3.56,17.72
			c-2.601,14.526-16.486,24.193-31.012,21.591C79.351,270.231,69.685,256.347,72.286,241.821z M295.129,284.041
			c0.005,9.157-1.803,18.225-5.32,26.68c-7.184,17.166-20.834,30.816-38,38c-8.455,3.517-17.523,5.325-26.68,5.32h-74
			c-2.351,0.011-4.7-0.096-7.04-0.32c-2.24-0.24-4.64-0.6-7.12-1.08c-7.382-1.484-14.509-4.031-21.16-7.56
			c-6.574-3.468-12.6-7.889-17.88-13.12c-5.539-5.446-10.015-11.875-13.2-18.96c-2.916-6.561-4.428-13.66-4.44-20.84
			c0-1.8,0-3.48,0.24-5c0.24-1.52,0.4-3.2,0.76-5c6.092,2.962,12.834,4.338,19.6,4c0,0.92-0.32,1.92-0.44,3.04s0,2.2,0,3.08
			c0.067,4.669,1.145,9.268,3.16,13.48c2.129,4.47,5.027,8.532,8.56,12c3.893,3.855,8.343,7.105,13.2,9.64
			c4.935,2.591,10.215,4.463,15.68,5.56c1.56,0.32,3.28,0.56,5.16,0.76s3.52,0.28,5.08,0.28h73.88c6.549-0.058,13.021-1.418,19.04-4
			c6.071-2.534,11.587-6.23,16.24-10.88c4.647-4.64,8.342-10.143,10.88-16.2c2.583-6.018,3.943-12.491,4-19.04V83.401
			c-0.06-6.549-1.42-13.021-4-19.04c-2.536-6.058-6.232-11.561-10.88-16.2c-9.343-9.386-22.037-14.668-35.28-14.68h-33.92
			c-5.753-0.027-11.452,1.102-16.76,3.32c-5.345,2.267-10.195,5.555-14.28,9.68c-4.202,4.276-7.759,9.14-10.56,14.44
			c-1.61,3-3.026,6.099-4.24,9.28c-3.314-1.739-6.855-3.005-10.52-3.76h-0.52c-2.819-0.547-5.689-0.788-8.56-0.72
			c1.716-4.969,3.816-9.796,6.28-14.44h0c3.708-6.976,8.411-13.377,13.96-19c5.929-6.02,12.983-10.817,20.76-14.12
			c7.738-3.181,16.034-4.786,24.4-4.72h33.92c9.157-0.004,18.225,1.804,26.68,5.32c17.171,7.177,30.823,20.829,38,38
			c3.515,8.456,5.323,17.523,5.32,26.68V284.041z"/>
	</g>
</g>
<g>
</g>
<g>
</g>
<g>
</g>
<g>
</g>
<g>
</g>
<g>
</g>
<g>
</g>
<g>
</g>
<g>
</g>
<g>
</g>
<g>
</g>
<g>
</g>
<g>
</g>
<g>
</g>
<g>
</g>
</svg>
