<?xml version="1.0" encoding="iso-8859-1"?>
<!-- Generator: Adobe Illustrator 19.0.0, SVG Export Plug-In . SVG Version: 6.00 Build 0)  -->
<svg version="1.1" id="Capa_1" xmlns="http://www.w3.org/2000/svg" xmlns:xlink="http://www.w3.org/1999/xlink" x="0px" y="0px"
	 viewBox="0 0 367.474 367.474" style="enable-background:new 0 0 367.474 367.474;" xml:space="preserve">
<g>
	<g>
		<path d="M218.093,63.321c-19.36-17.48-36.68-33.08-29.04-54.4c1.215-3.507-0.642-7.335-4.149-8.55
			c-2.758-0.956-5.817-0.022-7.571,2.31c-3.4,4-36.56,44.96-38.08,83.72c-5.04-4-9.76-9.56-8.44-15.32
			c0.776-3.55-1.428-7.068-4.96-7.92v0c-3.208-0.753-6.485,0.945-7.72,4c-1.16,2.68-17.04,40.68-15.44,74.32
			c1.44,30.4,22.76,49.32,49.56,57.44c22.19,6.498,45.839,6.037,67.76-1.32c25.48-8.88,44.84-27.52,44.84-55.44
			C264.853,105.521,240.293,83.361,218.093,63.321z M215.453,184.921c-19.246,6.432-39.997,6.837-59.48,1.16
			c-21.72-6.6-38.96-21.52-40-45.28c-0.184-17.326,2.52-34.562,8-51c5.496,6.219,12.102,11.36,19.48,15.16v0.04
			c3.176,1.877,7.273,0.823,9.149-2.354c0.826-1.399,1.115-3.051,0.811-4.646c-4.4-23.44,9.76-51.04,21.24-68.76
			c4,16.64,18.68,29.84,34.52,44c20,18.12,42.28,38.16,42.28,68.88C251.453,163.401,235.973,177.841,215.453,184.921z"/>
	</g>
</g>
<g>
	<g>
		<path d="M312.733,308.481l-63.04-34.16l67.72-36.72c6.325-3.657,10.473-10.163,11.12-17.44c1.519-15.534-6.556-30.432-20.4-37.64
			c-6.364-3.351-13.947-3.455-20.4-0.28l-104,56.32l-103.72-56.24c-6.486-3.216-14.124-3.112-20.52,0.28
			c-13.844,7.208-21.919,22.106-20.4,37.64c0.647,7.277,4.795,13.783,11.12,17.44l67.72,36.72l-63.16,34.12
			c-7.192,3.903-12.532,10.51-14.84,18.36c-2.347,7.822-1.484,16.256,2.4,23.44l0.6,1.08c8.166,14.911,26.838,20.432,41.8,12.36
			l99-53.68l99,53.68c14.972,8.065,33.648,2.525,41.8-12.4l0.6-1.08C333.199,335.309,327.659,316.633,312.733,308.481z
			 M289.533,201.521c-0.295-4.408,3.04-8.221,7.449-8.516c1.917-0.128,3.817,0.438,5.351,1.596c4.282,2.231,7.764,5.74,9.96,10.04
			c2.391,4.183,3.425,9.005,2.96,13.8c0.318,4.407-2.997,8.237-7.404,8.555c-1.933,0.139-3.85-0.427-5.396-1.595
			c-4.235-2.212-7.685-5.676-9.88-9.92v-0.2c-2.399-4.166-3.447-8.973-3-13.76L289.533,201.521z M276.053,203.761
			c0.053,6.208,1.633,12.307,4.6,17.76l0.2,0.4c2.945,5.466,7.19,10.122,12.36,13.56l-57.48,31.24l-37.84-20.52L276.053,203.761z
			 M64.973,225.361L64.973,225.361c-3.526,2.662-8.543,1.962-11.205-1.564c-1.168-1.546-1.734-3.464-1.595-5.396
			c-0.465-4.795,0.569-9.617,2.96-13.8c2.196-4.3,5.678-7.809,9.96-10.04c3.527-2.661,8.544-1.958,11.204,1.569
			c1.157,1.534,1.724,3.434,1.596,5.351c0.463,4.765-0.557,9.557-2.92,13.72v0.2C72.753,219.678,69.259,223.158,64.973,225.361z
			 M78.333,352.001c-8.452,4.564-19.003,1.434-23.6-7l-0.6-1.24c-4.564-8.452-1.434-19.003,7-23.6l0.04,0.12l70.56-38.32
			l37.84,20.52L78.333,352.001z M313.333,343.761l-0.6,1.08c-4.597,8.434-15.148,11.564-23.6,7l-214.92-116.4
			c10.568-7.113,16.991-18.943,17.2-31.68l214.88,116.52C314.672,324.861,317.81,335.327,313.333,343.761z"/>
	</g>
</g>
<g>
</g>
<g>
</g>
<g>
</g>
<g>
</g>
<g>
</g>
<g>
</g>
<g>
</g>
<g>
</g>
<g>
</g>
<g>
</g>
<g>
</g>
<g>
</g>
<g>
</g>
<g>
</g>
<g>
</g>
</svg>
