<?xml version="1.0" encoding="iso-8859-1"?>
<!-- Generator: Adobe Illustrator 19.0.0, SVG Export Plug-In . SVG Version: 6.00 Build 0)  -->
<svg version="1.1" id="Capa_1" xmlns="http://www.w3.org/2000/svg" xmlns:xlink="http://www.w3.org/1999/xlink" x="0px" y="0px"
	 viewBox="0 0 367.72 367.72" style="enable-background:new 0 0 367.72 367.72;" xml:space="preserve">
<g>
	<g>
		<path d="M335.72,238.955l0.28,0.12h-16.8v-15.28c1.245-0.867,2.41-1.844,3.48-2.92c4.68-4.662,7.313-10.994,7.32-17.6v-83.48
			c13.185-6.034,21.663-19.18,21.72-33.68v-2.92c-0.003-9.8-3.903-19.197-10.84-26.12c-6.916-6.952-16.314-10.866-26.12-10.88h-83.2
			c-5.468-26.256-31.185-43.107-57.441-37.639c-18.918,3.94-33.7,18.721-37.639,37.639H53.4
			c-20.438,0.044-36.996,16.602-37.04,37.04v2.92c0.01,9.807,3.925,19.206,10.88,26.12c3.138,3.13,6.809,5.677,10.84,7.52v83.32
			c0.007,6.606,2.64,12.938,7.32,17.6c1.07,1.076,2.234,2.053,3.48,2.92v15.4H32c-17.673,0-32,14.327-32,32v42.96
			c0,10.184,8.256,18.44,18.44,18.44H49.6c1.341,6.681,4.625,12.818,9.44,17.64c6.453,6.476,15.218,10.118,24.36,10.12h201.16
			c9.128-0.013,17.877-3.654,24.32-10.12c4.83-4.817,8.128-10.954,9.48-17.64h30.92c10.184,0,18.44-8.256,18.44-18.44v-43.04
			C367.72,253.281,353.393,238.955,335.72,238.955z M160,30.115c14.238-13.204,36.485-12.365,49.688,1.873
			c3.729,4.021,6.466,8.859,7.992,14.127h-67.44C151.986,39.996,155.359,34.467,160,30.115z M18.72,319.075
			c-2.752-0.022-4.978-2.248-5-5v-43.12c0.043-10.104,8.177-18.309,18.28-18.44h16.8l0.28,66.56H18.72z M177.2,346.795H83.44
			c-5.582,0.006-10.936-2.211-14.88-6.16c-3.949-3.944-6.166-9.298-6.16-14.88v-97.68h28.92v18.52
			c-0.005,13.962,11.31,25.284,25.271,25.289c6.71,0.002,13.145-2.663,17.889-7.409c4.759-4.734,7.436-11.168,7.44-17.88v-18.48
			h35.4L177.2,346.795z M107.914,254.394c-2.071-2.171-3.253-5.039-3.314-8.039v-32.32c0.134-6.626,5.615-11.889,12.241-11.754
			c3,0.061,5.868,1.243,8.039,3.314c2.217,2.235,3.467,5.252,3.48,8.4v32.6c-0.013,3.148-1.263,6.165-3.48,8.4v-0.2
			C120.084,259.369,112.488,259.189,107.914,254.394z M305.56,245.595v80c0.006,5.582-2.211,10.936-6.16,14.88
			c-3.944,3.949-9.298,6.166-14.88,6.16h-93.8v-118.52h35.4v18.48c0.556,13.973,12.333,24.85,26.306,24.294
			c13.194-0.525,23.769-11.1,24.294-24.294v-18.48h28.92L305.56,245.595z M239.4,246.595l0.04-0.24v-32.32
			c0.039-2.971,1.18-5.821,3.2-8l0.28-0.28c4.795-4.575,12.391-4.396,16.966,0.399c2.062,2.161,3.244,5.014,3.314,8.001v32.44
			c-0.854,6.572-6.874,11.208-13.446,10.354C244.353,256.247,240.102,251.996,239.4,246.595z M316.48,203.115
			c0.005,6.216-4.908,11.323-11.12,11.56h-28.64v-0.68c0.027-13.962-11.269-25.302-25.231-25.329
			c-6.743-0.013-13.212,2.669-17.969,7.449l-0.4,0.44c-4.506,4.689-7.028,10.937-7.04,17.44v0.68h-84.2v-0.68
			c-0.014-6.698-2.691-13.116-7.44-17.84c-9.87-9.875-25.876-9.879-35.751-0.009c-4.746,4.743-7.411,11.179-7.409,17.889v0.68H62.6
			c-1.375-0.051-2.73-0.349-4-0.88l-0.48-0.2c-4.046-1.903-6.632-5.969-6.64-10.44v-80h265V203.115z M315.48,109.795v-0.16H52.52
			c-1.869-0.072-3.722-0.368-5.52-0.88h-0.48c-9.88-3.076-16.618-12.212-16.64-22.56v-2.92c0.044-13.016,10.584-23.556,23.6-23.6
			H314.6c6.259-0.005,12.262,2.486,16.68,6.92c4.434,4.418,6.925,10.421,6.92,16.68v2.92
			C338.147,98.868,328.142,109.26,315.48,109.795z M354.28,313.995c-0.022,2.752-2.248,4.978-5,5h-30.24v-66.48H336
			c10.166,0.044,18.396,8.274,18.44,18.44L354.28,313.995z"/>
	</g>
</g>
<g>
</g>
<g>
</g>
<g>
</g>
<g>
</g>
<g>
</g>
<g>
</g>
<g>
</g>
<g>
</g>
<g>
</g>
<g>
</g>
<g>
</g>
<g>
</g>
<g>
</g>
<g>
</g>
<g>
</g>
</svg>
