<?xml version="1.0" encoding="iso-8859-1"?>
<!-- Generator: Adobe Illustrator 19.0.0, SVG Export Plug-In . SVG Version: 6.00 Build 0)  -->
<svg version="1.1" id="Capa_1" xmlns="http://www.w3.org/2000/svg" xmlns:xlink="http://www.w3.org/1999/xlink" x="0px" y="0px"
	 viewBox="0 0 367.187 367.187" style="enable-background:new 0 0 367.187 367.187;" xml:space="preserve">
<g>
	<g>
		<path d="M354.874,294.909c-2.526-2.848-5.418-5.35-8.6-7.44c-3.333-2.332-6.538-4.843-9.6-7.52
			c-24.859-23.203-47.963-48.218-69.12-74.84c-22.84-28-46.32-58.6-69.12-88.88l2.8-1.08c1.718-0.654,3.324-1.571,4.76-2.72
			c3.893-3.265,6.373-7.909,6.92-12.96c0.577-4.753-0.028-9.576-1.76-14.04c-0.952-2.642-2.3-5.124-4-7.36l-26.72-33.32
			l-26.92-33.28c-1.788-2.206-3.906-4.122-6.28-5.68c-3.994-2.662-8.583-4.297-13.36-4.76c-5.073-0.558-10.164,0.876-14.2,4
			c-0.4,0.32-3.4,3.6-3.4,3.6l-0.24-0.28c-7.44-9.04-18.56-10.04-28.56-6.32c-3.552,1.298-6.884,3.133-9.88,5.44
			c-3.015,2.359-5.623,5.197-7.72,8.4c-6.315,8.747-5.87,20.669,1.08,28.92l5.2,6.48l1.28,1.56l-4.4,3.6
			c-13.787,10.884-29.114,19.66-45.48,26.04l-5.88,2.2c-13.76,4.88-15.28,18.32-9.44,34.8c5.807,14.727,13.907,28.444,24,40.64
			c9.696,12.552,21.32,23.487,34.44,32.4c14.8,9.28,28.28,10.68,36-1.68c1.2-1.92,2.333-3.667,3.4-5.24
			c9.834-14.623,21.777-27.711,35.44-38.84c1.707-1.387,3.453-2.72,5.24-4c25.027,31.01,48.149,63.51,69.24,97.32
			c20.92,34.48,37.16,69.12,44,102.16c0.48,2.28,0.84,4,1.16,5.8c0.464,5.311,2.177,10.437,5,14.96
			c8.28,10.32,21.08,2.4,64.72-32.56C358.474,311.509,362.034,304.029,354.874,294.909z M81.113,23.069l0.36-0.04
			c1.293-1.969,2.901-3.713,4.76-5.16c1.898-1.503,4.016-2.704,6.28-3.56c4.536-2.263,10.014-1.342,13.56,2.28l2.48,3.08
			c-6.355,8.531-13.362,16.555-20.96,24l-0.8-1l-5.16-6.4C78.489,32.495,78.276,27.079,81.113,23.069z M95.553,183.749
			c-2.68,4.28-9.44,2.48-17.56-2.64c-11.842-8.119-22.331-18.055-31.08-29.44c-9.205-11.009-16.616-23.402-21.96-36.72
			c-3.2-9.04-3.48-16,1.28-17.72l4-1.52c3.16,14.24,13.52,32.32,26.24,48.2c12.72,15.88,28,29.88,41.36,36L95.553,183.749z
			 M136.954,136.349c-11.786,9.581-22.381,20.539-31.56,32.64c-11.08-3.96-25.84-17.52-38.64-33.52c-12.8-16-22.68-33.32-24-45.08
			c13.744-6.293,26.688-14.203,38.56-23.56l0.16-0.04c17.823-14.324,33.256-31.39,45.72-50.56c0.24-0.377,0.537-0.714,0.88-1
			c1.388-0.924,3.072-1.295,4.72-1.04c2.534,0.259,4.966,1.138,7.08,2.56c1.221,0.788,2.314,1.759,3.24,2.88l26.72,33.32
			l26.72,33.32c0.882,1.139,1.584,2.407,2.08,3.76c0.927,2.405,1.243,5.003,0.92,7.56c-0.121,1.663-0.864,3.219-2.08,4.36
			c-0.338,0.27-0.716,0.486-1.12,0.64C174.886,110.615,154.834,122.012,136.954,136.349z M326.913,319.909
			c-35.36,28.36-44.96,35.8-45.92,34.6c-1.159-2.898-1.926-5.939-2.28-9.04c-0.36-2-0.8-4-1.2-6.12
			c-7.36-34.6-24-70.56-45.84-106.28c-21.315-34.078-44.678-66.831-69.96-98.08c7.693-4.973,15.711-9.423,24-13.32
			c23.6,31.28,47.92,63.16,71.52,91.92l0.24-0.04c21.594,27.193,45.179,52.743,70.56,76.44c3.41,2.973,6.975,5.764,10.68,8.36
			c2.164,1.399,4.175,3.021,6,4.84C345.634,304.309,342.113,307.709,326.913,319.909z"/>
	</g>
</g>
<g>
</g>
<g>
</g>
<g>
</g>
<g>
</g>
<g>
</g>
<g>
</g>
<g>
</g>
<g>
</g>
<g>
</g>
<g>
</g>
<g>
</g>
<g>
</g>
<g>
</g>
<g>
</g>
<g>
</g>
</svg>
