<?xml version="1.0" encoding="iso-8859-1"?>
<!-- Generator: Adobe Illustrator 19.0.0, SVG Export Plug-In . SVG Version: 6.00 Build 0)  -->
<svg version="1.1" id="Capa_1" xmlns="http://www.w3.org/2000/svg" xmlns:xlink="http://www.w3.org/1999/xlink" x="0px" y="0px"
	 viewBox="0 0 403.735 403.735" style="enable-background:new 0 0 403.735 403.735;" xml:space="preserve">
<g>
	<g>
		<path d="M398.867,126.114L278.628,5.874c-3.108-3.136-7.345-4.894-11.76-4.88c-4.415-0.014-8.652,1.744-11.76,4.88l-43.6,44
			c-26.32,26.32-28.72,54-20.24,77.04l-186.4,186.08c-6.49,6.497-6.49,17.023,0,23.52l61.04,61.36c6.497,6.49,17.023,6.49,23.52,0
			l185.52-185.2c8.015,3.438,16.639,5.234,25.36,5.28c20.814-0.71,40.519-9.557,54.88-24.64l43.68-43.68
			C405.357,143.137,405.357,132.611,398.867,126.114z M78.147,386.274l-0.56,0.32l-61.36-61.44c-0.234-0.247-0.234-0.633,0-0.88
			l9.68-10.4l62.32,62.32L78.147,386.274z M99.828,365.234l-62.32-62.32l161.2-161.12c3.658,5.793,7.951,11.159,12.8,16l35.52,35.52
			c4.114,4.168,8.584,7.97,13.36,11.36L99.828,365.234z M343.988,181.954l5.6,5.68l-5.68-5.68c-10.08,10-45.92,40-85.6,0
			l-35.52-35.52c-10-10.08-40-45.92,0-85.68l20.08-20.08l121.2,121.2L343.988,181.954z M387.587,138.354l-12.24,12.24l-121.12-121.2
			l12.24-12.24h0.48h0.4l120,120c0.352,0.035,0.608,0.349,0.573,0.701C387.899,138.066,387.774,138.253,387.587,138.354z"/>
	</g>
</g>
<g>
	<g>
		<path d="M217.027,197.074l-11.2-11.2c-6.567-6.319-16.953-6.319-23.52,0l-48,48c-6.49,6.497-6.49,17.023,0,23.52l11.2,11.2
			c6.497,6.49,17.023,6.49,23.52,0l48-48C223.517,214.097,223.517,203.571,217.027,197.074z M205.828,209.234l-48,48
			c-0.259,0.2-0.621,0.2-0.88,0l-11.04-11.28v-0.88l48-48h0.88l11.2,11.2L205.828,209.234z"/>
	</g>
</g>
<g>
</g>
<g>
</g>
<g>
</g>
<g>
</g>
<g>
</g>
<g>
</g>
<g>
</g>
<g>
</g>
<g>
</g>
<g>
</g>
<g>
</g>
<g>
</g>
<g>
</g>
<g>
</g>
<g>
</g>
</svg>
