<?xml version="1.0" encoding="iso-8859-1"?>
<!-- Generator: Adobe Illustrator 19.0.0, SVG Export Plug-In . SVG Version: 6.00 Build 0)  -->
<svg version="1.1" id="Capa_1" xmlns="http://www.w3.org/2000/svg" xmlns:xlink="http://www.w3.org/1999/xlink" x="0px" y="0px"
	 viewBox="0 0 414.56 414.56" style="enable-background:new 0 0 414.56 414.56;" xml:space="preserve">
<g>
	<g>
		<path d="M352.24,109.68c3.143-0.007,5.991-1.853,7.28-4.72l16-35.36c0.938-2.086,0.938-4.474,0-6.56l-16.24-35.6
			c-1.289-2.867-4.137-4.713-7.28-4.72H234.8V8c0-4.418-3.582-8-8-8h-39.04c-4.418,0-8,3.582-8,8v14.72H62.24
			c-3.077,0.009-5.877,1.782-7.2,4.56l-16,33.68c-0.938,2.086-0.938,4.474,0,6.56l16,37.36c1.252,2.956,4.15,4.877,7.36,4.88h117.36
			v97.76H63.28c-3.21,0.003-6.108,1.924-7.36,4.88l-16,37.36c-0.938,2.086-0.938,4.474,0,6.56l16,33.68
			c1.323,2.778,4.123,4.551,7.2,4.56h116.64v104h-49.12c-4.418,0-8,3.582-8,8s3.582,8,8,8h153.28c4.418,0,8-3.582,8-8s-3.582-8-8-8
			H234.8V223.52h116.48c3.21-0.003,6.108-1.924,7.36-4.88l16-37.36c0.938-2.086,0.938-4.474,0-6.56l-16-33.68
			c-1.323-2.778-4.123-4.551-7.2-4.56H234.8v-26.8H352.24z M235.12,38.72h112l12.16,27.6l-12.16,27.36h-112V38.72z M179.76,93.76
			L67.52,93.68L55.28,64.56l12.24-25.84h112.24V93.76z M179.04,278.72H68.08l-12.24-25.84l12.48-29.36h110.72V278.72z
			 M218.56,399.04h-23.04V16h23.04V399.04z M235.52,152.72h110.96l12.24,25.84l-12.48,28.96H235.52V152.72z"/>
	</g>
</g>
<g>
</g>
<g>
</g>
<g>
</g>
<g>
</g>
<g>
</g>
<g>
</g>
<g>
</g>
<g>
</g>
<g>
</g>
<g>
</g>
<g>
</g>
<g>
</g>
<g>
</g>
<g>
</g>
<g>
</g>
</svg>
