<?xml version="1.0" encoding="iso-8859-1"?>
<!-- Generator: Adobe Illustrator 19.0.0, SVG Export Plug-In . SVG Version: 6.00 Build 0)  -->
<svg version="1.1" id="Capa_1" xmlns="http://www.w3.org/2000/svg" xmlns:xlink="http://www.w3.org/1999/xlink" x="0px" y="0px"
	 viewBox="0 0 377.286 377.286" style="enable-background:new 0 0 377.286 377.286;" xml:space="preserve">
<g>
	<g>
		<path d="M356.033,227.123c-14.484-16.638-35.382-26.301-57.44-26.56c-57.92-3.2-84.32-19.92-96-33.52
			c-7.213-7.573-11.25-17.622-11.28-28.08c0.016-0.293,0.016-0.587,0-0.88V28.643c0-4.418-3.582-8-8-8H25.073c-4.418,0-8,3.582-8,8
			v39.52v135.36c-4.24,8-18.48,41.12-16.96,102.56v42.48c0,4.418,3.582,8,8,8l119.2,0.08c4.418,0,8-3.582,8-8
			c-0.631-2.209,0.648-4.512,2.857-5.143c2.209-0.631,4.512,0.648,5.143,2.857c0.213,0.747,0.213,1.538,0,2.285c0,4.418,3.582,8,8,8
			h25.44c4.418,0,8-3.582,8-8c-0.631-2.209,0.648-4.512,2.857-5.143c2.209-0.631,4.512,0.648,5.143,2.857
			c0.213,0.747,0.213,1.538,0,2.285c0,4.418,3.582,8,8,8h25.44c4.418,0,8-3.582,8-8c-0.631-2.209,0.648-4.512,2.857-5.143
			c2.209-0.631,4.512,0.648,5.143,2.857c0.213,0.747,0.213,1.538,0,2.285c0,4.418,3.582,8,8,8h25.44c4.418,0,8-3.582,8-8
			c-0.631-2.209,0.648-4.512,2.857-5.143c2.209-0.631,4.512,0.648,5.143,2.857c0.213,0.747,0.213,1.538,0,2.285c0,4.418,3.582,8,8,8
			h25.44c4.418,0,8-3.582,8-8c-0.631-2.209,0.648-4.512,2.857-5.143c2.209-0.631,4.512,0.648,5.143,2.857
			c0.213,0.747,0.213,1.538,0,2.285c0,4.418,3.582,8,8,8h16c4.418,0,8-3.582,8-8v-35.84c2.037-1.239,3.416-3.321,3.76-5.68
			C376.833,305.123,382.193,258.483,356.033,227.123z M183.233,166.643l-18.4,14c-3.394,2.828-3.853,7.873-1.025,11.267
			c2.653,3.184,7.299,3.815,10.705,1.453l18.16-13.92c4.612,5.044,9.824,9.504,15.52,13.28h0l-16,18.72
			c-2.872,3.358-2.478,8.408,0.88,11.28c3.358,2.872,8.408,2.478,11.28-0.88l18.48-21.44c5.541,2.487,11.232,4.624,17.04,6.4
			l-10.56,21.12c-1.844,4.015-0.085,8.765,3.93,10.609c3.841,1.764,8.392,0.236,10.39-3.489l11.92-24
			c5.653,1.227,11.573,2.293,17.76,3.2l-7.2,19.28c-1.783,4.042,0.048,8.765,4.091,10.548c4.042,1.783,8.765-0.048,10.548-4.091
			c0.123-0.279,0.23-0.566,0.321-0.858l8.64-23.04c3.12,0,6.16,0.64,9.36,0.8c17.59,0.094,34.311,7.655,46,20.8
			c4.203,5.108,7.602,10.827,10.08,16.96h-45.44c-25.015,0.094-46.059,18.773-49.12,43.6H85.313v-45.6
			c0.065-0.585,0.065-1.175,0-1.76c-3.84-16.88-19.52-48-52.48-52.8V76.003h142.48v24h-24c-4.418,0-8,3.582-8,8s3.582,8,8,8h24
			v16.64l-20.56,2.96c-4.418,0.309-7.749,4.142-7.44,8.56c0.309,4.418,4.142,7.749,8.56,7.44h1.44l19.2-2.8
			C177.772,155.074,180.041,161.099,183.233,166.643z M32.993,36.643h142.4v23.52H32.753L32.993,36.643z M29.793,213.923h0.08
			c29.04,3.68,38.4,34.32,40,40v44.4h-53.92C15.793,251.123,25.473,223.843,29.793,213.923z M357.313,340.643
			c-4.399-10.228-16.256-14.954-26.485-10.555c-4.739,2.038-8.517,5.816-10.555,10.555h-12.96
			c-4.399-10.228-16.256-14.954-26.485-10.555c-4.739,2.038-8.517,5.816-10.555,10.555h-12.8
			c-4.399-10.228-16.256-14.954-26.485-10.555c-4.74,2.038-8.517,5.816-10.555,10.555h-12.72
			c-4.399-10.228-16.256-14.954-26.485-10.555c-4.74,2.038-8.517,5.816-10.555,10.555h-12.72
			c-4.399-10.228-16.256-14.954-26.485-10.555c-4.74,2.038-8.517,5.816-10.555,10.555H15.953v-26.48h342.4l0.08,26.48H357.313z
			 M276.833,298.163c3.135-15.868,16.947-27.378,33.12-27.6h50.16c1.855,9.078,2.687,18.336,2.48,27.6H276.833z"/>
	</g>
</g>
<g>
</g>
<g>
</g>
<g>
</g>
<g>
</g>
<g>
</g>
<g>
</g>
<g>
</g>
<g>
</g>
<g>
</g>
<g>
</g>
<g>
</g>
<g>
</g>
<g>
</g>
<g>
</g>
<g>
</g>
</svg>
