<?xml version="1.0" encoding="iso-8859-1"?>
<!-- Generator: Adobe Illustrator 19.0.0, SVG Export Plug-In . SVG Version: 6.00 Build 0)  -->
<svg version="1.1" id="Capa_1" xmlns="http://www.w3.org/2000/svg" xmlns:xlink="http://www.w3.org/1999/xlink" x="0px" y="0px"
	 viewBox="0 0 477.402 477.402" style="enable-background:new 0 0 477.402 477.402;" xml:space="preserve">
<g>
	<g>
		<path d="M473.182,318.501c-0.031-0.016-0.061-0.033-0.092-0.049v0c-3.921-2.036-8.75-0.508-10.786,3.414
			c-0.005,0.009-0.009,0.018-0.014,0.026l-13.44,25.84c-65.92-70.24-104.32-184-108.4-196.64v-34.4c0-4.418-3.582-8-8-8
			s-8,3.582-8,8v27.68H146.29v-27.44c0-4.418-3.582-8-8-8s-8,3.582-8,8v34.16c-4.8,13.84-52.72,146.8-107.36,196.64l-7.36-21.04
			c-1.458-4.175-6.025-6.378-10.2-4.92c-4.175,1.458-6.378,6.025-4.92,10.2l11.12,32c0.138,0.33,0.299,0.651,0.48,0.96
			c0.179,0.417,0.393,0.819,0.64,1.2c0.444,0.371,0.927,0.693,1.44,0.96l0.8,0.8c0.455,0.288,0.937,0.529,1.44,0.72h0.8
			c0.822,0.129,1.658,0.129,2.48,0h431.28c0.717,0.098,1.443,0.098,2.16,0h0.72l1.28-0.64l0.72-0.56l0.96-0.88l0.56-0.8l0.56-0.72
			l18.56-35.68C478.538,325.439,477.075,320.59,473.182,318.501z M213.89,348.773l-10.72-24c-1.789-4.043-6.517-5.869-10.56-4.08
			c-4.043,1.789-5.869,6.517-4.08,10.56l9.84,22.16H40.53c51.44-53.36,93.92-166.4,103.44-192.88h0h178.4
			C309.33,193.013,260.37,309.333,213.89,348.773z M324.45,353.253h-92c36.8-37.28,72-110.64,92-156.24V353.253z M340.45,353.253
			v-155.92c17.12,42.08,48,107.04,91.76,155.92H340.45z"/>
	</g>
</g>
<g>
</g>
<g>
</g>
<g>
</g>
<g>
</g>
<g>
</g>
<g>
</g>
<g>
</g>
<g>
</g>
<g>
</g>
<g>
</g>
<g>
</g>
<g>
</g>
<g>
</g>
<g>
</g>
<g>
</g>
</svg>
