<?xml version="1.0" encoding="iso-8859-1"?>
<!-- Generator: Adobe Illustrator 19.0.0, SVG Export Plug-In . SVG Version: 6.00 Build 0)  -->
<svg version="1.1" id="Capa_1" xmlns="http://www.w3.org/2000/svg" xmlns:xlink="http://www.w3.org/1999/xlink" x="0px" y="0px"
	 viewBox="0 0 465.03 465.03" style="enable-background:new 0 0 465.03 465.03;" xml:space="preserve">
<g>
	<g>
		<path d="M355.955,270.206c-7.629-13.408-20.451-23.075-35.44-26.72c-13.515-2.383-27.433-0.713-40,4.8
			c-4.24-33.36-36.96-84.8-41.28-91.44c-2.397-3.711-7.349-4.777-11.061-2.379c-0.953,0.615-1.764,1.427-2.379,2.379
			c-4.32,6.64-37.04,58.08-41.28,91.44c-12.595-5.418-26.508-7.004-40-4.56c-15.006,3.549-27.885,13.128-35.6,26.48
			c-5.929,8.92-7.871,19.908-5.36,30.32c5.84,24.96,34.56,42.64,35.84,43.44c3.781,2.286,8.699,1.074,10.985-2.707
			c0.494-0.817,0.838-1.715,1.015-2.653c0-1.36,6.64-33.92,28.4-30.4c12.034,1.831,21.888,10.527,25.2,22.24
			c2.403,12.131-2.988,24.478-13.52,30.96c-4.64,3.52-11.2,7.44-16,5.68c-4.8-1.76-9.2-11.6-9.92-14.8
			c-0.79-3.519-3.837-6.075-7.44-6.24c-3.607-0.176-6.885,2.085-8,5.52c0,1.04-8.48,26.56,5.68,43.36c8.88,10.56,24,14.88,44.4,12.8
			l25.76,36.48c2.56,3.601,7.555,4.445,11.156,1.884c0.729-0.518,1.366-1.155,1.884-1.884l25.52-35.92
			c20.64,2.08,35.52-2.24,44.4-12.8c14.16-16.88,6-42.32,5.68-43.36c-1.115-3.435-4.393-5.696-8-5.52
			c-3.603,0.165-6.65,2.721-7.44,6.24c-0.56,2.48-3.84,12.16-9.76,14.24c-5.92,2.08-11.52-2.08-16-5.68
			c-10.532-6.482-15.923-18.829-13.52-30.96c3.313-11.713,13.166-20.409,25.2-22.24c21.76-3.52,28.16,29.04,28.4,30.4
			c0.821,4.341,5.005,7.195,9.347,6.375c0.938-0.177,1.836-0.521,2.653-1.015c1.2-0.72,29.92-18.4,35.84-43.44
			C363.826,290.114,361.884,279.126,355.955,270.206z M345.955,296.286c-3.696,10.828-10.62,20.265-19.84,27.04
			c-6.16-16.48-19.76-35.44-43.44-31.52c-18.329,2.896-33.261,16.262-38.16,34.16c-4.051,18.306,3.62,37.211,19.28,47.52
			c11.36,8.72,21.92,11.44,31.36,8c1.685-0.618,3.295-1.423,4.8-2.4c-0.673,2.008-1.703,3.878-3.04,5.52
			c-7.2,8.56-22.88,8-34.8,6.64c-3.079-0.566-6.205,0.716-8,3.28l-21.6,31.44l-22-31.12c-1.51-2.121-3.957-3.374-6.56-3.36h-1.04
			c-11.84,1.68-27.6,1.92-34.8-6.64c-1.337-1.642-2.367-3.512-3.04-5.52c1.505,0.977,3.115,1.782,4.8,2.4c9.44,3.44,20,0.72,31.36-8
			c15.66-10.308,23.331-29.214,19.28-47.52c-4.899-17.898-19.831-31.264-38.16-34.16c-24-3.92-37.28,15.04-43.44,31.6
			c-9.244-6.888-16.165-16.433-19.84-27.36c-1.478-6.231-0.258-12.796,3.36-18.08c5.43-9.683,14.599-16.712,25.36-19.44
			c14.164-1.905,28.55,1.147,40.72,8.64c3.763,2.316,8.69,1.143,11.006-2.62c1.092-1.775,1.449-3.906,0.994-5.94
			c-4.24-15.12,15.28-55.04,32-82.88c16.72,27.84,36.24,67.76,32,82.88c-1.174,4.259,1.327,8.664,5.586,9.838
			c2.177,0.6,4.507,0.252,6.414-0.958c12.172-7.487,26.557-10.539,40.72-8.64c10.761,2.728,19.93,9.757,25.36,19.44l0.08,0.32
			C346.087,283.974,347.271,290.268,345.955,296.286z"/>
	</g>
</g>
<g>
	<g>
		<path d="M395.321,279.812c-9.56-73.975-67.791-132.206-141.766-141.766l0-0.32c54.48-43.12,43.84-114.56,43.68-115.28
			c-0.594-2.981-2.826-5.368-5.76-6.16l-56.88-16c-1.388-0.381-2.852-0.381-4.24,0l-56.8,16c-3.025,0.842-5.278,3.377-5.76,6.48
			c0,0.8-10.72,72,43.68,115.28c-89.915,11.62-153.386,93.931-141.766,183.846s93.931,153.386,183.846,141.766
			S406.941,369.727,395.321,279.812z M182.995,29.966L182.995,29.966l49.52-13.68l49.52,13.6c1.36,17.04,1.52,72-49.52,102.96
			C181.475,102.286,181.635,47.006,182.995,29.966z M380.675,300.366c-0.22,81.696-66.464,147.832-148.16,147.92
			c-81.826,0-148.16-66.334-148.16-148.16s66.334-148.16,148.16-148.16s148.16,66.334,148.16,148.16
			C380.675,300.206,380.675,300.286,380.675,300.366z"/>
	</g>
</g>
<g>
</g>
<g>
</g>
<g>
</g>
<g>
</g>
<g>
</g>
<g>
</g>
<g>
</g>
<g>
</g>
<g>
</g>
<g>
</g>
<g>
</g>
<g>
</g>
<g>
</g>
<g>
</g>
<g>
</g>
</svg>
