<?xml version="1.0" encoding="iso-8859-1"?>
<!-- Generator: Adobe Illustrator 19.0.0, SVG Export Plug-In . SVG Version: 6.00 Build 0)  -->
<svg version="1.1" id="Capa_1" xmlns="http://www.w3.org/2000/svg" xmlns:xlink="http://www.w3.org/1999/xlink" x="0px" y="0px"
	 viewBox="0 0 420.961 420.961" style="enable-background:new 0 0 420.961 420.961;" xml:space="preserve">
<g>
	<g>
		<path d="M418.481,70.161c-1.555-1.459-3.629-2.237-5.76-2.16l-131.04,8l-139.52-32h-0.88h-0.88h-0.72h-0.96l-132.16,24
			c-3.849,0.704-6.624,4.088-6.56,8v284.96c-0.072,4.418,3.45,8.057,7.868,8.13c0.527,0.009,1.054-0.035,1.572-0.13l130.56-24
			l139.04,32h1.76h0.48l132.16-8c4.23-0.254,7.528-3.763,7.52-8V76.001C420.975,73.795,420.077,71.682,418.481,70.161z
			 M16.241,82.481l116.16-21.2v84l-116.16-14.08V82.481z M132.401,330.481l-116.16,20.88v-135.36l116.16,14.08V330.481z
			 M132.401,214.001l-116.16-14.08v-52.56l116.16,14.08V214.001z M273.041,358.641l-124.64-28.16v-96l124.64,49.6V358.641z
			 M273.041,267.201l-124.64-49.6l0-51.44l124.64,49.6V267.201z M273.041,198.561l-124.64-49.68v-86.88l124.64,28.48V198.561z
			 M405.201,353.521l-116.16,6.96v-72.96l116.16,7.04V353.521z M405.201,278.481l-116.16-7.04v-52.96l116.16,7.04V278.481z
			 M405.201,209.841l-116.16-7.36V91.521l116.16-7.04V209.841z"/>
	</g>
</g>
<g>
</g>
<g>
</g>
<g>
</g>
<g>
</g>
<g>
</g>
<g>
</g>
<g>
</g>
<g>
</g>
<g>
</g>
<g>
</g>
<g>
</g>
<g>
</g>
<g>
</g>
<g>
</g>
<g>
</g>
</svg>
