<?xml version="1.0" encoding="iso-8859-1"?>
<!-- Generator: Adobe Illustrator 19.0.0, SVG Export Plug-In . SVG Version: 6.00 Build 0)  -->
<svg version="1.1" id="Capa_1" xmlns="http://www.w3.org/2000/svg" xmlns:xlink="http://www.w3.org/1999/xlink" x="0px" y="0px"
	 viewBox="0 0 416.63 416.63" style="enable-background:new 0 0 416.63 416.63;" xml:space="preserve">
<g>
	<g>
		<path d="M365.196,250.391c-0.081-0.001-0.161-0.002-0.242-0.002h-26v-32c7.255-12.067,10.995-25.921,10.8-40v-99.28
			c0-8.837-7.163-16-16-16h-69.44c0.077-0.905,0.077-1.815,0-2.72v-30.32c1.407-15.134-9.721-28.542-24.855-29.949
			c-1.792-0.167-3.595-0.157-5.385,0.029h-51.52c-15.118-1.567-28.644,9.417-30.211,24.535c-0.186,1.79-0.195,3.593-0.029,5.385
			v30.32c-0.077,0.905-0.077,1.815,0,2.72h-69.52c-8.837,0-16,7.163-16,16v99.52c-0.397,14.104,3.359,28.013,10.8,40v32h-25.92
			c-8.837,0-16,7.163-16,16v80c0,8.837,7.163,16,16,16h26v1.68c0,27.12,13.44,40,24.8,45.84c8.528,4.315,17.962,6.537,27.52,6.48
			h156.64c38.56,0,52.32-27.04,52.32-52.32v-1.68h26c8.837,0,16-7.163,16-16v-80C381.087,257.793,374.031,250.523,365.196,250.391z
			 M77.514,346.469h-26v-80h26V346.469z M168.314,30.069c0-11.76,5.76-13.92,14.24-13.92h51.44c8.56,0,14.32,2.16,14.32,13.92v30.32
			l-0.56,0.56l-79.44-0.56V30.069z M184.314,304.149V79.109l48,0v160v65.04H184.314z M219.354,320.149v36.24h-22v-36.24H219.354z
			 M82.874,178.629l-0.16-99.52h85.6v152h-32.96C123.034,231.109,82.874,227.349,82.874,178.629z M323.034,364.069l-0.16,0.08
			c0,10.96-3.52,36.32-36.32,36.32h-156.56c-6.967,0.068-13.849-1.523-20.08-4.64c-10.96-5.76-16-16-16-32v-128.72
			c12.405,8.024,26.907,12.199,41.68,12h32.72v65.04c0,4.418,3.582,8,8,8h5.04v44.24c0,4.418,3.582,8,8,8h38c4.418,0,8-3.582,8-8
			v-44.24h4.96c4.418,0,8-3.582,8-8v-65.04h33.04c14.789,0.506,29.365-3.635,41.68-11.84V364.069z M333.754,178.389
			c0,12.32-3.76,52.48-52.48,52.48h-32.96v-152h85.52L333.754,178.389z M364.874,346.469h-25.92v-80h26L364.874,346.469z"/>
	</g>
</g>
<g>
</g>
<g>
</g>
<g>
</g>
<g>
</g>
<g>
</g>
<g>
</g>
<g>
</g>
<g>
</g>
<g>
</g>
<g>
</g>
<g>
</g>
<g>
</g>
<g>
</g>
<g>
</g>
<g>
</g>
</svg>
