<?xml version="1.0" encoding="iso-8859-1"?>
<!-- Generator: Adobe Illustrator 19.0.0, SVG Export Plug-In . SVG Version: 6.00 Build 0)  -->
<svg version="1.1" id="Capa_1" xmlns="http://www.w3.org/2000/svg" xmlns:xlink="http://www.w3.org/1999/xlink" x="0px" y="0px"
	 viewBox="0 0 344 344" style="enable-background:new 0 0 344 344;" xml:space="preserve">
<g>
	<g>
		<path d="M294.56,77.596H228c0,0,0,0,0-0.56v-30.32c1.536-15.121-9.477-28.624-24.598-30.16c-1.849-0.188-3.713-0.188-5.562,0
			h-51.6c-15.116-1.58-28.652,9.393-30.233,24.509c-0.196,1.878-0.199,3.772-0.007,5.651v30.32c0,0,0,0,0,0.56H49.44
			c-22.8,0-49.44,12.96-49.44,49.44v151.12c0,36.48,26.64,49.44,49.44,49.44h245.12c36.48,0,49.44-26.64,49.44-49.44v-151.04
			C344,90.556,317.36,77.596,294.56,77.596z M132,46.716c0-11.76,5.68-14.16,14.16-14.16h51.44c8.48,0,14.16,2.4,14.16,14.16v30.32
			l-0.56,0.56l-79.2-0.48V46.716z M300.266,311.596c-1.898,0.177-3.808,0.177-5.706,0H49.44
			c-16.893,1.576-31.864-10.842-33.44-27.734c-0.177-1.898-0.177-3.808,0-5.706v-151.04c-1.576-16.893,10.842-31.865,27.734-33.44
			c1.898-0.177,3.808-0.177,5.706,0h245.12c16.893-1.576,31.865,10.842,33.44,27.734c0.177,1.898,0.177,3.808,0,5.706v151.04
			C329.576,295.049,317.158,310.02,300.266,311.596z"/>
	</g>
</g>
<g>
	<g>
		<path d="M221.28,194.636H180v-41.28c0-4.418-3.582-8-8-8s-8,3.582-8,8v41.28h-41.28c-4.418,0-8,3.582-8,8s3.582,8,8,8H164v41.44
			c0,4.418,3.582,8,8,8s8-3.582,8-8v-41.44h41.28c4.418,0,8-3.582,8-8S225.698,194.636,221.28,194.636z"/>
	</g>
</g>
<g>
</g>
<g>
</g>
<g>
</g>
<g>
</g>
<g>
</g>
<g>
</g>
<g>
</g>
<g>
</g>
<g>
</g>
<g>
</g>
<g>
</g>
<g>
</g>
<g>
</g>
<g>
</g>
<g>
</g>
</svg>
