<?xml version="1.0" encoding="iso-8859-1"?>
<!-- Generator: Adobe Illustrator 19.0.0, SVG Export Plug-In . SVG Version: 6.00 Build 0)  -->
<svg version="1.1" id="Capa_1" xmlns="http://www.w3.org/2000/svg" xmlns:xlink="http://www.w3.org/1999/xlink" x="0px" y="0px"
	 viewBox="0 0 442.426 442.426" style="enable-background:new 0 0 442.426 442.426;" xml:space="preserve">
<g>
	<g>
		<path d="M262.733,261.226c-9.52-29.6-47.76-59.92-49.52-61.2c-3.497-2.701-8.521-2.056-11.222,1.44
			c-1.861,2.409-2.193,5.664-0.858,8.4c9.76,19.76,5.04,24-12.56,41.28c-15.163,13.242-20.602,34.456-13.68,53.36
			c7.411,17.137,24.627,27.924,43.28,27.12c15.418,1.283,30.448-5.27,40-17.44C267.833,298.198,269.517,278.63,262.733,261.226z
			 M245.213,304.746c-6.603,7.81-16.622,11.877-26.8,10.88c-12.149,0.849-23.531-5.993-28.48-17.12
			c-4.374-12.866-0.403-27.097,10-35.84c11.44-11.04,20.88-20.16,22.16-33.28c10.964,10.211,19.659,22.612,25.52,36.4
			C252.846,278.451,251.961,292.819,245.213,304.746z"/>
	</g>
</g>
<g>
	<g>
		<circle cx="221.213" cy="403.146" r="14.88"/>
	</g>
</g>
<g>
	<g>
		<path d="M324.433,371.885c0-0.193-0.006-0.387-0.02-0.58l-15.2-214.08c-0.295-4.198-3.791-7.45-8-7.44h-28v-14.96h40
			c4.418,0,8-3.582,8-8c0-32.8-40-58.8-93.28-61.2v-57.6c0.014-4.418-3.556-8.011-7.974-8.026c-0.222-0.001-0.444,0.008-0.666,0.026
			c-4.418,0-8,3.582-8,8v57.52c-52.96,2.4-93.28,28.4-93.28,61.2c0,4.418,3.582,8,8,8h43.52v15.2h-28.32
			c-4.152-0.017-7.626,3.145-8,7.28l-15.2,214.08c-0.309,4.407,3.013,8.231,7.42,8.54c0.193,0.013,0.386,0.02,0.58,0.02h16
			l-19.36,51.76c-1.546,4.139,0.555,8.748,4.694,10.294c0.904,0.338,1.861,0.509,2.826,0.506h182.08
			c4.418,0.014,8.012-3.556,8.026-7.974c0.003-0.965-0.168-1.922-0.506-2.826l-19.36-51.76h16
			C320.831,379.876,324.422,376.304,324.433,371.885z M135.213,118.826c6.88-19.6,38.24-35.28,75.92-37.28v18.48
			c0.006,4.418,3.593,7.995,8.011,7.989c4.41-0.006,7.983-3.579,7.989-7.989v-18.4c37.76,1.92,69.2,17.6,76.08,37.2H135.213z
			 M256.973,150.026h-71.52v-15.2h71.44L256.973,150.026z M300.733,426.426h-159.04l17.36-46.48h124.32L300.733,426.426z
			 M196.493,363.866v-8h45.52v8H196.493z M258.013,363.866v-16c0-4.418-3.582-8-8-8h-61.52c-4.418,0-8,3.582-8,8v16h-45.92
			l14.64-197.84h144l14.64,197.84H258.013z"/>
	</g>
</g>
<g>
</g>
<g>
</g>
<g>
</g>
<g>
</g>
<g>
</g>
<g>
</g>
<g>
</g>
<g>
</g>
<g>
</g>
<g>
</g>
<g>
</g>
<g>
</g>
<g>
</g>
<g>
</g>
<g>
</g>
</svg>
