<?xml version="1.0" encoding="iso-8859-1"?>
<!-- Generator: Adobe Illustrator 19.0.0, SVG Export Plug-In . SVG Version: 6.00 Build 0)  -->
<svg version="1.1" id="Capa_1" xmlns="http://www.w3.org/2000/svg" xmlns:xlink="http://www.w3.org/1999/xlink" x="0px" y="0px"
	 viewBox="0 0 415.577 415.577" style="enable-background:new 0 0 415.577 415.577;" xml:space="preserve">
<g>
	<g>
		<path d="M384.686,209.866L384.686,209.866c-2.291-3.374-4.977-6.462-8-9.2c-5.76-35.52-34.4-82.56-35.68-84.56
			c-11.44-19.12-71.44-114.48-105.28-116.08c-6.481-0.343-12.681,2.681-16.4,8c-23.52,32.64,55.44,147.04,88,191.2l-169.2,111.2
			l-29.36-32c-2.999-3.245-8.06-3.444-11.305-0.445c-1.294,1.196-2.157,2.787-2.455,4.525l-2.72,16l-2,1.36l-15.2-16l14.64-14.4
			c2.997-3.101,2.997-8.019,0-11.12l-4.72-5.12c-14.465-14.214-37.714-14.011-51.928,0.454
			c-13.303,13.537-14.097,34.982-1.832,49.466l67.52,72.88c6.307,27.429,33.656,44.551,61.084,38.244
			c5.879-1.352,11.471-3.737,16.516-7.044l193.6-126.72C393.529,265.059,400.118,233.44,384.686,209.866z M232.286,17.946l0-0.08
			c0.444-1.149,1.569-1.888,2.8-1.84c18.56,0.72,65.28,64,92.48,108.08c12.378,20.479,22.516,42.231,30.24,64.88
			c-1.786-0.578-3.602-1.059-5.44-1.44c-10.774-2.326-22.012-1.061-32,3.6C268.286,120.026,220.286,34.586,232.286,17.946z
			 M99.086,352.586l-56-60.48c-3.759-3.993-5.774-9.319-5.6-14.8v0c0.199-5.495,2.59-10.681,6.64-14.4
			c4.002-3.789,9.375-5.782,14.88-5.52c5.246,0.175,10.226,2.351,13.92,6.08l-14.64,14.4c-3.049,3.111-3.049,8.089,0,11.2
			l25.12,26.8c2.666,2.839,6.99,3.346,10.24,1.2l10.56-6.96c1.869-1.218,3.145-3.161,3.52-5.36l0.56-3.36l16.48,17.84l-4.08,2.64
			C109.809,328.954,102.075,339.953,99.086,352.586z M361.166,267.066h0.08l-194,126.88c-16.727,9.732-38.176,4.063-47.909-12.664
			c-9.018-15.498-4.88-35.304,9.589-45.896l193.92-126.88c16.727-9.732,38.176-4.063,47.909,12.664
			C379.772,236.669,375.635,256.475,361.166,267.066z"/>
	</g>
</g>
<g>
	<g>
		<path d="M147.85,345.227c-3.881,0.019-7.674,1.158-10.924,3.28c-9.328,6.079-11.962,18.569-5.884,27.897
			c2.941,4.513,7.566,7.662,12.844,8.743c1.369,0.276,2.763,0.41,4.16,0.4c11.134-0.054,20.116-9.124,20.062-20.258
			C168.054,354.155,158.984,345.173,147.85,345.227z M150.366,369.546l-0.08-0.64c-0.914,0.619-2.036,0.849-3.12,0.64
			c-2.145-0.822-3.218-3.227-2.396-5.373c0.538-1.403,1.79-2.407,3.276-2.627c2.209-0.641,4.519,0.631,5.16,2.84
			C153.847,366.595,152.575,368.906,150.366,369.546z"/>
	</g>
</g>
<g>
	<g>
		<path d="M359.723,226.612c-2.926-4.457-7.499-7.572-12.717-8.666c-5.248-1.118-10.725-0.08-15.2,2.88
			c-9.307,6.111-11.897,18.61-5.786,27.917c6.111,9.307,18.61,11.897,27.917,5.786C363.244,248.418,365.835,235.919,359.723,226.612
			z M347.006,238.586c-0.234,1.091-0.897,2.042-1.84,2.64c-1.922,1.259-4.501,0.722-5.76-1.2s-0.722-4.501,1.2-5.76
			c0.662-0.451,1.44-0.701,2.24-0.72h0.88c1.078,0.215,2.027,0.848,2.64,1.76c0.635,0.968,0.838,2.156,0.56,3.28H347.006z"/>
	</g>
</g>
<g>
	<g>
		<path d="M300.606,118.266v0.08c-10.032-13.482-18.84-27.832-26.32-42.88c-1.988-3.954-6.806-5.548-10.76-3.56
			c-3.954,1.988-5.548,6.806-3.56,10.76c8.082,16.274,17.67,31.755,28.64,46.24c2.938,3.314,8.006,3.618,11.32,0.68
			S303.544,121.58,300.606,118.266z"/>
	</g>
</g>
<g>
</g>
<g>
</g>
<g>
</g>
<g>
</g>
<g>
</g>
<g>
</g>
<g>
</g>
<g>
</g>
<g>
</g>
<g>
</g>
<g>
</g>
<g>
</g>
<g>
</g>
<g>
</g>
<g>
</g>
</svg>
