<?xml version="1.0" encoding="iso-8859-1"?>
<!-- Generator: Adobe Illustrator 19.0.0, SVG Export Plug-In . SVG Version: 6.00 Build 0)  -->
<svg version="1.1" id="Capa_1" xmlns="http://www.w3.org/2000/svg" xmlns:xlink="http://www.w3.org/1999/xlink" x="0px" y="0px"
	 viewBox="0 0 412.679 412.679" style="enable-background:new 0 0 412.679 412.679;" xml:space="preserve">
<g>
	<g>
		<path d="M288.74,138.469c-20.96-65.2-108-133.92-112-136.8c-3.497-2.701-8.521-2.056-11.222,1.44
			c-1.861,2.409-2.193,5.664-0.858,8.4c26.48,52.96,9.68,69.28-31.12,108.64c-33.28,32-44.56,75.36-29.44,112.72
			c14.32,35.44,48,56.56,91.12,56.56c37.68,0,66.72-12.56,84-36.24C299.38,225.509,303.22,182.629,288.74,138.469z M266.26,243.749
			c-14.4,19.68-38.32,29.68-71.12,29.68c-36,0-64.48-17.44-76.24-46.56c-12.64-31.2-2.72-67.68,25.76-95.2
			c33.892-32.773,56.681-54.846,46.183-97.019c27.201,24.804,69.66,68.39,82.617,108.699
			C286.42,183.669,283.38,220.229,266.26,243.749z"/>
	</g>
</g>
<g>
	<g>
		<path d="M322.736,359.995c-1.273-0.499-2.583-0.902-3.917-1.205l-21.92-6.88l21.92-6.88c7.034-2.088,12.922-6.937,16.32-13.44l0,0
			c6.894-13.397,1.622-29.845-11.775-36.739c-6.245-3.214-13.49-3.895-20.225-1.901l-96.8,30.4l-96.48-30.4
			c-14.027-5.5-29.856,1.412-35.356,15.439s1.412,29.856,15.439,35.356c1.273,0.499,2.583,0.902,3.917,1.205l21.92,6.88l-21.92,6.88
			c-14.36,4.559-22.306,19.896-17.747,34.256c3.568,11.24,13.955,18.914,25.747,19.024c2.715-0.027,5.412-0.459,8-1.28l96.48-30.24
			l96.48,30.32c14.027,5.5,29.856-1.412,35.356-15.439C343.675,381.324,336.763,365.494,322.736,359.995z M307.46,308.229
			c6.011-1.637,12.211,1.908,13.848,7.918c1.553,5.701-1.557,11.635-7.128,13.602h0.24l-44.08,13.76l-37.52-11.84L307.46,308.229z
			 M105.06,395.589c-5.965,1.856-12.304-1.475-14.16-7.44c-1.856-5.965,1.475-12.304,7.44-14.16l44-13.68l37.52,11.84
			L105.06,395.589z M316.302,394.816c-2.651,1.389-5.746,1.667-8.603,0.773l-209.36-65.84c-5.921-1.937-9.151-8.307-7.214-14.228
			c1.5-4.585,5.75-7.709,10.574-7.772c1.142,0.016,2.275,0.204,3.36,0.56l209.28,65.68c2.877,0.897,5.27,2.916,6.64,5.6h0.08
			C323.951,385.108,321.821,391.925,316.302,394.816z"/>
	</g>
</g>
<g>
</g>
<g>
</g>
<g>
</g>
<g>
</g>
<g>
</g>
<g>
</g>
<g>
</g>
<g>
</g>
<g>
</g>
<g>
</g>
<g>
</g>
<g>
</g>
<g>
</g>
<g>
</g>
<g>
</g>
</svg>
