<?xml version="1.0" encoding="iso-8859-1"?>
<!-- Generator: Adobe Illustrator 19.0.0, SVG Export Plug-In . SVG Version: 6.00 Build 0)  -->
<svg version="1.1" id="Capa_1" xmlns="http://www.w3.org/2000/svg" xmlns:xlink="http://www.w3.org/1999/xlink" x="0px" y="0px"
	 viewBox="0 0 421.093 421.093" style="enable-background:new 0 0 421.093 421.093;" xml:space="preserve">
<g>
	<g>
		<path d="M381.226,372.725l-137.28-137.04l-49.36-49.04l52.64-40.72c10.427-4.477,22.387-3.55,32,2.48
			c3.605,2.555,8.598,1.703,11.153-1.901c0.585-0.826,1.008-1.755,1.247-2.739c0.64-2.64,15.44-65.28-32-108.4
			c-43.68-48-106.32-33.44-108.96-32.8c-4.214,1.326-6.556,5.818-5.229,10.033c0.258,0.819,0.646,1.591,1.149,2.287
			c6.017,9.617,6.943,21.571,2.48,32l-40.88,52.96l-22.4-22.4c-3.12-3.102-8.16-3.102-11.28,0l-34.64,34.64
			c-3.102,3.12-3.102,8.16,0,11.28l28.24,28.24l-14.8,19.04c-2.477,3.179-2.203,7.704,0.64,10.56l59.36,59.36
			c2.856,2.843,7.381,3.117,10.56,0.64l19.2-14.56l192,192c3.066,3.181,8.131,3.274,11.312,0.208
			c0.071-0.068,0.14-0.138,0.208-0.208l34.64-34.64C384.328,380.884,384.328,375.845,381.226,372.725z M248.747,46.645h-0.08
			c22.562,21.364,33.562,52.221,29.6,83.04c-9.536-3.21-19.81-3.517-29.52-0.88c-11.787-39.887-42.891-71.141-82.72-83.12
			c2.556-9.616,2.222-19.772-0.96-29.2C196.176,12.598,227.27,23.805,248.747,46.645z M56.666,117.765l23.36-23.36l18.56,18.24
			l-20.64,26L56.666,117.765z M119.546,224.485l-49.44-49.44l88.8-114.72c36.748,10.217,65.463,38.932,75.68,75.68L119.546,224.485z
			 M155.466,216.565l26.56-20.16l44.8,44.8l-23.36,23.36L155.466,216.565z M340.906,402.005l-126-126.08l23.36-23.36l126.08,126.08
			L340.906,402.005z"/>
	</g>
</g>
<g>
</g>
<g>
</g>
<g>
</g>
<g>
</g>
<g>
</g>
<g>
</g>
<g>
</g>
<g>
</g>
<g>
</g>
<g>
</g>
<g>
</g>
<g>
</g>
<g>
</g>
<g>
</g>
<g>
</g>
</svg>
